solid STL generated by MeshLab
  facet normal  5.170670e-01  1.595252e-01 -8.409480e-01
    outer loop
      vertex   7.501638e+01 -4.915376e+00  1.114411e+01
      vertex   7.121515e+01 -2.353356e+01  5.275071e+00
      vertex   6.426992e+01 -1.020950e+00  5.275289e+00
    endloop
  endfacet
  facet normal -7.792028e-03 -2.630044e-02 -9.996237e-01
    outer loop
      vertex   1.860259e+01 -3.625141e+01  5.624061e+00
      vertex   1.163658e+00 -1.781316e+01  5.274880e+00
      vertex   4.706444e+01 -3.158193e+01  5.279346e+00
    endloop
  endfacet
  facet normal -3.264702e-05 -4.332100e-04 -9.999999e-01
    outer loop
      vertex   4.706444e+01 -3.158193e+01  5.279346e+00
      vertex   1.163658e+00 -1.781316e+01  5.274880e+00
      vertex   7.121515e+01 -2.353356e+01  5.275071e+00
    endloop
  endfacet
  facet normal  3.611867e-06  1.081336e-05 -1.000000e+00
    outer loop
      vertex   7.121515e+01 -2.353356e+01  5.275071e+00
      vertex   1.163658e+00 -1.781316e+01  5.274880e+00
      vertex   6.426992e+01 -1.020950e+00  5.275289e+00
    endloop
  endfacet
  facet normal -3.142834e-04  3.546633e-04 -9.999999e-01
    outer loop
      vertex   4.561832e+00  5.324636e+00  5.282018e+00
      vertex   3.278329e+01  1.605844e+01  5.276955e+00
      vertex   1.163658e+00 -1.781316e+01  5.274880e+00
    endloop
  endfacet
  facet normal -1.305980e-05  7.346662e-05 -1.000000e+00
    outer loop
      vertex   3.278329e+01  1.605844e+01  5.276955e+00
      vertex   6.426992e+01 -1.020950e+00  5.275289e+00
      vertex   1.163658e+00 -1.781316e+01  5.274880e+00
    endloop
  endfacet
  facet normal  1.488833e-01 -9.319037e-01 -3.307405e-01
    outer loop
      vertex   1.860259e+01 -3.625141e+01  5.624061e+00
      vertex   4.706444e+01 -3.158193e+01  5.279346e+00
      vertex   3.273176e+01 -4.014808e+01  2.296369e+01
    endloop
  endfacet
  facet normal -4.879087e-01 -7.629290e-01  4.241278e-01
    outer loop
      vertex  -4.648476e+00 -1.561940e+01  9.370636e+01
      vertex  -2.549472e+01 -1.891328e+01  6.380013e+01
      vertex  -8.032629e+00 -3.309953e+01  5.836971e+01
    endloop
  endfacet
  facet normal -8.383543e-01  5.394622e-01 -7.837463e-02
    outer loop
      vertex  -1.024837e+01  8.518079e+00  8.952701e+01
      vertex  -5.766042e+00  1.390788e+01  7.867930e+01
      vertex  -2.549472e+01 -1.891328e+01  6.380013e+01
    endloop
  endfacet
  facet normal -8.125170e-01 -8.874610e-02  5.761425e-01
    outer loop
      vertex  -4.648476e+00 -1.561940e+01  9.370636e+01
      vertex  -1.024837e+01  8.518079e+00  8.952701e+01
      vertex  -2.549472e+01 -1.891328e+01  6.380013e+01
    endloop
  endfacet
  facet normal -4.095173e-01  3.763016e-01 -8.310792e-01
    outer loop
      vertex  -1.570508e+01 -9.305676e+00  2.694818e+01
      vertex   1.358103e+01  7.994083e+00  2.035045e+01
      vertex   1.046146e+01 -5.192536e+00  1.591690e+01
    endloop
  endfacet
  facet normal -6.096784e-01 -6.964380e-01 -3.785053e-01
    outer loop
      vertex  -8.032629e+00 -3.309953e+01  5.836971e+01
      vertex  -1.570508e+01 -9.305676e+00  2.694818e+01
      vertex   2.888346e-01 -3.086983e+01  4.086332e+01
    endloop
  endfacet
  facet normal -3.664542e-01  8.833738e-01 -2.921680e-01
    outer loop
      vertex  -1.415214e+01  7.676481e+00  5.417474e+01
      vertex   2.586339e+01  2.012128e+01  4.161193e+01
      vertex   1.358103e+01  7.994083e+00  2.035045e+01
    endloop
  endfacet
  facet normal  5.647801e-01 -8.084778e-01  1.654906e-01
    outer loop
      vertex  -8.032629e+00 -3.309953e+01  5.836971e+01
      vertex   2.888346e-01 -3.086983e+01  4.086332e+01
      vertex   1.104048e+01 -1.858117e+01  6.420478e+01
    endloop
  endfacet
  facet normal  1.868972e-01 -1.455723e-01  9.715339e-01
    outer loop
      vertex   7.566582e+00  2.151571e+01  8.804742e+01
      vertex  -1.024837e+01  8.518079e+00  8.952701e+01
      vertex   6.730006e+00  9.063884e+00  8.634260e+01
    endloop
  endfacet
  facet normal -2.200045e-01  8.551442e-01 -4.693894e-01
    outer loop
      vertex   6.730006e+00  9.063884e+00  8.634260e+01
      vertex   2.797952e+01  2.674159e+01  1.085885e+02
      vertex   2.976264e+01  1.709959e+01  9.018676e+01
    endloop
  endfacet
  facet normal -2.331221e-01  9.516290e-01  2.001407e-01
    outer loop
      vertex   2.586339e+01  2.012128e+01  4.161193e+01
      vertex  -1.415214e+01  7.676481e+00  5.417474e+01
      vertex   2.233416e+01  1.513077e+01  6.123003e+01
    endloop
  endfacet
  facet normal -1.410465e-02 -8.820799e-01  4.708886e-01
    outer loop
      vertex   1.104048e+01 -1.858117e+01  6.420478e+01
      vertex   2.888346e-01 -3.086983e+01  4.086332e+01
      vertex   2.900086e+01 -1.738484e+01  6.698376e+01
    endloop
  endfacet
  facet normal  5.868031e-01 -7.792309e-01  2.201393e-01
    outer loop
      vertex   7.566582e+00  2.151571e+01  8.804742e+01
      vertex   9.729499e+00  2.681641e+01  1.010449e+02
      vertex  -1.024837e+01  8.518079e+00  8.952701e+01
    endloop
  endfacet
  facet normal  4.507383e-02 -5.669478e-01  8.225197e-01
    outer loop
      vertex   4.941812e-01  3.852540e+01  1.096218e+02
      vertex  -1.024837e+01  8.518079e+00  8.952701e+01
      vertex   9.729499e+00  2.681641e+01  1.010449e+02
    endloop
  endfacet
  facet normal -6.643426e-01  4.777344e-01  5.748207e-01
    outer loop
      vertex  -4.648476e+00 -1.561940e+01  9.370636e+01
      vertex   2.783471e+01  8.776370e+00  1.109731e+02
      vertex   6.730006e+00  9.063884e+00  8.634260e+01
    endloop
  endfacet
  facet normal  3.854200e-01 -8.753436e-01 -2.919334e-01
    outer loop
      vertex   5.449429e+01 -3.955219e+01  3.898677e+01
      vertex   4.706444e+01 -3.158193e+01  5.279346e+00
      vertex   6.096658e+01 -2.990925e+01  1.861799e+01
    endloop
  endfacet
  facet normal  3.647169e-01  9.301882e-01  4.160999e-02
    outer loop
      vertex   2.882715e+01  2.818720e+01  3.839854e+01
      vertex   6.678268e+01  1.274639e+01  5.089170e+01
      vertex   5.867785e+01  1.728106e+01  2.055916e+01
    endloop
  endfacet
  facet normal -8.082914e-01  1.073213e-01  5.789189e-01
    outer loop
      vertex   1.073898e+01 -2.460578e+01  1.990325e+01
      vertex   1.046146e+01 -5.192536e+00  1.591690e+01
      vertex   1.163658e+00 -1.781316e+01  5.274880e+00
    endloop
  endfacet
  facet normal  7.211606e-01  6.529934e-01  2.313589e-01
    outer loop
      vertex   7.866093e+01 -1.733266e+01  3.483067e+01
      vertex   8.383894e+01 -1.979173e+01  2.563101e+01
      vertex   7.501638e+01 -4.915376e+00  1.114411e+01
    endloop
  endfacet
  facet normal  6.791570e-01 -7.334648e-01  2.784063e-02
    outer loop
      vertex   5.449429e+01 -3.955219e+01  3.898677e+01
      vertex   7.866093e+01 -1.733266e+01  3.483067e+01
      vertex   6.901617e+01 -2.533400e+01  5.931332e+01
    endloop
  endfacet
  facet normal -8.134693e-01  1.192960e-01  5.692417e-01
    outer loop
      vertex   1.163658e+00 -1.781316e+01  5.274880e+00
      vertex   1.046146e+01 -5.192536e+00  1.591690e+01
      vertex   4.561832e+00  5.324636e+00  5.282018e+00
    endloop
  endfacet
  facet normal -1.608557e-01  9.682846e-01 -1.911815e-01
    outer loop
      vertex  -1.415214e+01  7.676481e+00  5.417474e+01
      vertex  -5.766042e+00  1.390788e+01  7.867930e+01
      vertex   2.233416e+01  1.513077e+01  6.123003e+01
    endloop
  endfacet
  facet normal -8.770941e-01  4.421088e-01  1.877383e-01
    outer loop
      vertex  -5.766042e+00  1.390788e+01  7.867930e+01
      vertex  -1.415214e+01  7.676481e+00  5.417474e+01
      vertex  -2.549472e+01 -1.891328e+01  6.380013e+01
    endloop
  endfacet
  facet normal  7.761791e-01  6.199907e-01 -1.147063e-01
    outer loop
      vertex   6.678268e+01  1.274639e+01  5.089170e+01
      vertex   7.501638e+01 -4.915376e+00  1.114411e+01
      vertex   5.867785e+01  1.728106e+01  2.055916e+01
    endloop
  endfacet
  facet normal  8.489962e-01  3.510192e-03  5.283873e-01
    outer loop
      vertex   2.233416e+01  1.513077e+01  6.123003e+01
      vertex   6.730006e+00  9.063884e+00  8.634260e+01
      vertex   1.498187e+01 -1.829611e+00  7.315613e+01
    endloop
  endfacet
  facet normal  1.615559e-01  9.316517e-01  3.254610e-01
    outer loop
      vertex   6.730006e+00  9.063884e+00  8.634260e+01
      vertex   2.233416e+01  1.513077e+01  6.123003e+01
      vertex  -5.766042e+00  1.390788e+01  7.867930e+01
    endloop
  endfacet
  facet normal  9.363191e-01  3.489908e-01  3.888490e-02
    outer loop
      vertex   7.866093e+01 -1.733266e+01  3.483067e+01
      vertex   7.501638e+01 -4.915376e+00  1.114411e+01
      vertex   6.678268e+01  1.274639e+01  5.089170e+01
    endloop
  endfacet
  facet normal  9.245957e-01  4.350878e-02  3.784573e-01
    outer loop
      vertex   6.377105e+01  7.299617e+00  6.837582e+01
      vertex   6.901617e+01 -2.533400e+01  5.931332e+01
      vertex   7.866093e+01 -1.733266e+01  3.483067e+01
    endloop
  endfacet
  facet normal  4.370107e-02  5.619087e-01  8.260441e-01
    outer loop
      vertex   2.233416e+01  1.513077e+01  6.123003e+01
      vertex   1.498187e+01 -1.829611e+00  7.315613e+01
      vertex   4.290097e+01 -3.327145e+00  7.269778e+01
    endloop
  endfacet
  facet normal  9.400778e-01  2.441607e-01  2.379903e-01
    outer loop
      vertex   7.866093e+01 -1.733266e+01  3.483067e+01
      vertex   6.678268e+01  1.274639e+01  5.089170e+01
      vertex   6.377105e+01  7.299617e+00  6.837582e+01
    endloop
  endfacet
  facet normal -8.601058e-01  3.231164e-02  5.090913e-01
    outer loop
      vertex   4.561832e+00  5.324636e+00  5.282018e+00
      vertex   1.046146e+01 -5.192536e+00  1.591690e+01
      vertex   1.358103e+01  7.994083e+00  2.035045e+01
    endloop
  endfacet
  facet normal -1.374936e-01  7.196688e-01 -6.805677e-01
    outer loop
      vertex   6.730006e+00  9.063884e+00  8.634260e+01
      vertex   2.976264e+01  1.709959e+01  9.018676e+01
      vertex   1.498187e+01 -1.829611e+00  7.315613e+01
    endloop
  endfacet
  facet normal  8.639272e-01 -3.419295e-01 -3.697487e-01
    outer loop
      vertex   2.578526e+01  5.000154e+00  9.208261e+01
      vertex   1.498187e+01 -1.829611e+00  7.315613e+01
      vertex   2.976264e+01  1.709959e+01  9.018676e+01
    endloop
  endfacet
  facet normal -3.550942e-01  9.336411e-01  4.714220e-02
    outer loop
      vertex   1.358103e+01  7.994083e+00  2.035045e+01
      vertex   3.278329e+01  1.605844e+01  5.276955e+00
      vertex   4.561832e+00  5.324636e+00  5.282018e+00
    endloop
  endfacet
  facet normal -4.050114e-01 -1.535103e-01 -9.013326e-01
    outer loop
      vertex  -2.549472e+01 -1.891328e+01  6.380013e+01
      vertex  -1.415214e+01  7.676481e+00  5.417474e+01
      vertex  -8.032629e+00 -3.309953e+01  5.836971e+01
    endloop
  endfacet
  facet normal -9.813343e-01 -1.329833e-01  1.389192e-01
    outer loop
      vertex  -8.032629e+00 -3.309953e+01  5.836971e+01
      vertex  -1.415214e+01  7.676481e+00  5.417474e+01
      vertex  -1.570508e+01 -9.305676e+00  2.694818e+01
    endloop
  endfacet
  facet normal -5.320948e-01 -7.010305e-01 -4.747961e-01
    outer loop
      vertex  -1.570508e+01 -9.305676e+00  2.694818e+01
      vertex   1.073898e+01 -2.460578e+01  1.990325e+01
      vertex   2.888346e-01 -3.086983e+01  4.086332e+01
    endloop
  endfacet
  facet normal -1.082926e-01 -9.363893e-01 -3.338380e-01
    outer loop
      vertex   1.073898e+01 -2.460578e+01  1.990325e+01
      vertex   1.808069e+01 -3.146976e+01  3.677461e+01
      vertex   2.888346e-01 -3.086983e+01  4.086332e+01
    endloop
  endfacet
  facet normal -5.292801e-01  7.331185e-01 -4.270829e-01
    outer loop
      vertex   1.358103e+01  7.994083e+00  2.035045e+01
      vertex  -1.570508e+01 -9.305676e+00  2.694818e+01
      vertex  -1.415214e+01  7.676481e+00  5.417474e+01
    endloop
  endfacet
  facet normal -1.437405e-01 -8.539013e-01 -5.001912e-01
    outer loop
      vertex   1.808069e+01 -3.146976e+01  3.677461e+01
      vertex   3.029692e+01 -3.881740e+01  4.580756e+01
      vertex   2.888346e-01 -3.086983e+01  4.086332e+01
    endloop
  endfacet
  facet normal  1.739139e-01  2.070461e-01  9.627491e-01
    outer loop
      vertex   6.730006e+00  9.063884e+00  8.634260e+01
      vertex  -1.024837e+01  8.518079e+00  8.952701e+01
      vertex  -4.648476e+00 -1.561940e+01  9.370636e+01
    endloop
  endfacet
  facet normal -7.556011e-01  9.216925e-02  6.485151e-01
    outer loop
      vertex   2.783471e+01  8.776370e+00  1.109731e+02
      vertex   2.797952e+01  2.674159e+01  1.085885e+02
      vertex   6.730006e+00  9.063884e+00  8.634260e+01
    endloop
  endfacet
  facet normal  2.250945e-01 -9.359149e-01 -2.709165e-01
    outer loop
      vertex   4.706444e+01 -3.158193e+01  5.279346e+00
      vertex   5.449429e+01 -3.955219e+01  3.898677e+01
      vertex   3.273176e+01 -4.014808e+01  2.296369e+01
    endloop
  endfacet
  facet normal  1.127823e-01  9.579152e-01  2.639668e-01
    outer loop
      vertex   2.586339e+01  2.012128e+01  4.161193e+01
      vertex   2.233416e+01  1.513077e+01  6.123003e+01
      vertex   6.678268e+01  1.274639e+01  5.089170e+01
    endloop
  endfacet
  facet normal -4.745940e-03 -3.725165e-01  9.280134e-01
    outer loop
      vertex   1.498187e+01 -1.829611e+00  7.315613e+01
      vertex   2.900086e+01 -1.738484e+01  6.698376e+01
      vertex   4.290097e+01 -3.327145e+00  7.269778e+01
    endloop
  endfacet
  facet normal  5.351821e-01  6.317877e-01 -5.607356e-01
    outer loop
      vertex   5.867785e+01  1.728106e+01  2.055916e+01
      vertex   7.501638e+01 -4.915376e+00  1.114411e+01
      vertex   6.426992e+01 -1.020950e+00  5.275289e+00
    endloop
  endfacet
  facet normal  4.992664e-01 -7.946744e-01  3.452907e-01
    outer loop
      vertex   1.104048e+01 -1.858117e+01  6.420478e+01
      vertex  -4.648476e+00 -1.561940e+01  9.370636e+01
      vertex  -8.032629e+00 -3.309953e+01  5.836971e+01
    endloop
  endfacet
  facet normal -1.435370e-02 -9.982925e-01  5.662163e-02
    outer loop
      vertex   3.029692e+01 -3.881740e+01  4.580756e+01
      vertex   3.273176e+01 -4.014808e+01  2.296369e+01
      vertex   5.449429e+01 -3.955219e+01  3.898677e+01
    endloop
  endfacet
  facet normal -8.915825e-01  4.246119e-01 -1.574334e-01
    outer loop
      vertex  -5.766042e+00  1.390788e+01  7.867930e+01
      vertex  -1.024837e+01  8.518079e+00  8.952701e+01
      vertex   4.941812e-01  3.852540e+01  1.096218e+02
    endloop
  endfacet
  facet normal  7.882224e-02 -9.220506e-01  3.789588e-01
    outer loop
      vertex   4.473634e+01 -2.836395e+01  6.823866e+01
      vertex   3.029692e+01 -3.881740e+01  4.580756e+01
      vertex   5.449429e+01 -3.955219e+01  3.898677e+01
    endloop
  endfacet
  facet normal  3.582405e-01  6.604971e-01 -6.598540e-01
    outer loop
      vertex   3.278329e+01  1.605844e+01  5.276955e+00
      vertex   5.867785e+01  1.728106e+01  2.055916e+01
      vertex   6.426992e+01 -1.020950e+00  5.275289e+00
    endloop
  endfacet
  facet normal  7.795022e-01 -4.278719e-01  4.574955e-01
    outer loop
      vertex  -4.648476e+00 -1.561940e+01  9.370636e+01
      vertex   1.104048e+01 -1.858117e+01  6.420478e+01
      vertex   1.498187e+01 -1.829611e+00  7.315613e+01
    endloop
  endfacet
  facet normal -7.566609e-01  5.775594e-01 -3.064138e-01
    outer loop
      vertex   4.941812e-01  3.852540e+01  1.096218e+02
      vertex   1.341805e+01  4.453551e+01  8.903595e+01
      vertex  -5.766042e+00  1.390788e+01  7.867930e+01
    endloop
  endfacet
  facet normal  5.918852e-01 -8.056412e-01  2.478290e-02
    outer loop
      vertex  -4.648476e+00 -1.561940e+01  9.370636e+01
      vertex   1.498187e+01 -1.829611e+00  7.315613e+01
      vertex   2.783471e+01  8.776370e+00  1.109731e+02
    endloop
  endfacet
  facet normal  3.250079e-01 -9.335217e-01  1.513512e-01
    outer loop
      vertex   2.783471e+01  8.776370e+00  1.109731e+02
      vertex   1.498187e+01 -1.829611e+00  7.315613e+01
      vertex   2.578526e+01  5.000154e+00  9.208261e+01
    endloop
  endfacet
  facet normal -1.575618e-01  9.701545e-01  1.843219e-01
    outer loop
      vertex   1.341805e+01  4.453551e+01  8.903595e+01
      vertex   4.941812e-01  3.852540e+01  1.096218e+02
      vertex   1.931789e+01  4.157756e+01  1.096481e+02
    endloop
  endfacet
  facet normal  6.508251e-01  7.552198e-01 -7.790837e-02
    outer loop
      vertex   1.931789e+01  4.157756e+01  1.096481e+02
      vertex   2.191557e+01  3.837051e+01  1.002602e+02
      vertex   1.341805e+01  4.453551e+01  8.903595e+01
    endloop
  endfacet
  facet normal  2.627677e-01 -8.686928e-01  4.199118e-01
    outer loop
      vertex   4.473634e+01 -2.836395e+01  6.823866e+01
      vertex   5.449429e+01 -3.955219e+01  3.898677e+01
      vertex   6.901617e+01 -2.533400e+01  5.931332e+01
    endloop
  endfacet
  facet normal  1.236370e-01  9.411725e-01  3.144969e-01
    outer loop
      vertex   2.233416e+01  1.513077e+01  6.123003e+01
      vertex   6.377105e+01  7.299617e+00  6.837582e+01
      vertex   6.678268e+01  1.274639e+01  5.089170e+01
    endloop
  endfacet
  facet normal  3.597731e-01 -1.955304e-01  9.123218e-01
    outer loop
      vertex   4.473634e+01 -2.836395e+01  6.823866e+01
      vertex   6.901617e+01 -2.533400e+01  5.931332e+01
      vertex   6.377105e+01  7.299617e+00  6.837582e+01
    endloop
  endfacet
  facet normal  6.566209e-01 -7.407274e-01 -1.420282e-01
    outer loop
      vertex   7.866093e+01 -1.733266e+01  3.483067e+01
      vertex   5.449429e+01 -3.955219e+01  3.898677e+01
      vertex   6.096658e+01 -2.990925e+01  1.861799e+01
    endloop
  endfacet
  facet normal  2.227471e-01  8.722259e-01 -4.354374e-01
    outer loop
      vertex   2.797952e+01  2.674159e+01  1.085885e+02
      vertex   4.005140e+01  2.218133e+01  1.056292e+02
      vertex   2.976264e+01  1.709959e+01  9.018676e+01
    endloop
  endfacet
  facet normal  7.481929e-01 -6.615133e-01  5.106478e-02
    outer loop
      vertex   2.578526e+01  5.000154e+00  9.208261e+01
      vertex   4.005140e+01  2.218133e+01  1.056292e+02
      vertex   2.783471e+01  8.776370e+00  1.109731e+02
    endloop
  endfacet
  facet normal  1.474133e-01  9.343179e-01 -3.245295e-01
    outer loop
      vertex   2.882715e+01  2.818720e+01  3.839854e+01
      vertex   5.867785e+01  1.728106e+01  2.055916e+01
      vertex   3.278329e+01  1.605844e+01  5.276955e+00
    endloop
  endfacet
  facet normal  2.728265e-01 -1.492709e-01  9.504125e-01
    outer loop
      vertex   4.473634e+01 -2.836395e+01  6.823866e+01
      vertex   6.377105e+01  7.299617e+00  6.837582e+01
      vertex   4.290097e+01 -3.327145e+00  7.269778e+01
    endloop
  endfacet
  facet normal -5.779927e-01 -7.587090e-01  3.004748e-01
    outer loop
      vertex   1.073898e+01 -2.460578e+01  1.990325e+01
      vertex   1.860259e+01 -3.625141e+01  5.624061e+00
      vertex   3.273176e+01 -4.014808e+01  2.296369e+01
    endloop
  endfacet
  facet normal -1.313150e-01  4.081638e-01  9.034150e-01
    outer loop
      vertex   2.586339e+01  2.012128e+01  4.161193e+01
      vertex   6.678268e+01  1.274639e+01  5.089170e+01
      vertex   2.882715e+01  2.818720e+01  3.839854e+01
    endloop
  endfacet
  facet normal -1.073740e-01 -4.487978e-01  8.871591e-01
    outer loop
      vertex   2.900086e+01 -1.738484e+01  6.698376e+01
      vertex   1.498187e+01 -1.829611e+00  7.315613e+01
      vertex   1.104048e+01 -1.858117e+01  6.420478e+01
    endloop
  endfacet
  facet normal  5.429863e-01  7.799406e-02 -8.361117e-01
    outer loop
      vertex   7.566582e+00  2.151571e+01  8.804742e+01
      vertex   6.730006e+00  9.063884e+00  8.634260e+01
      vertex  -5.766042e+00  1.390788e+01  7.867930e+01
    endloop
  endfacet
  facet normal  6.166903e-01 -1.233713e-01 -7.774783e-01
    outer loop
      vertex  -5.766042e+00  1.390788e+01  7.867930e+01
      vertex   1.341805e+01  4.453551e+01  8.903595e+01
      vertex   7.566582e+00  2.151571e+01  8.804742e+01
    endloop
  endfacet
  facet normal -5.032483e-01  8.429727e-01 -1.901004e-01
    outer loop
      vertex   2.586339e+01  2.012128e+01  4.161193e+01
      vertex   3.278329e+01  1.605844e+01  5.276955e+00
      vertex   1.358103e+01  7.994083e+00  2.035045e+01
    endloop
  endfacet
  facet normal -9.419515e-01  2.629320e-01 -2.087923e-01
    outer loop
      vertex   2.586339e+01  2.012128e+01  4.161193e+01
      vertex   2.882715e+01  2.818720e+01  3.839854e+01
      vertex   3.278329e+01  1.605844e+01  5.276955e+00
    endloop
  endfacet
  facet normal -7.190720e-01 -6.771404e-01  1.562572e-01
    outer loop
      vertex   1.163658e+00 -1.781316e+01  5.274880e+00
      vertex   1.860259e+01 -3.625141e+01  5.624061e+00
      vertex   1.073898e+01 -2.460578e+01  1.990325e+01
    endloop
  endfacet
  facet normal  9.221458e-02 -7.345375e-01  6.722730e-01
    outer loop
      vertex   9.494613e+00  3.784226e+01  1.131242e+02
      vertex   9.729499e+00  2.681641e+01  1.010449e+02
      vertex   1.830356e+01  3.378859e+01  1.074868e+02
    endloop
  endfacet
  facet normal -3.024582e-01 -7.069062e-01  6.393768e-01
    outer loop
      vertex   4.941812e-01  3.852540e+01  1.096218e+02
      vertex   9.729499e+00  2.681641e+01  1.010449e+02
      vertex   9.494613e+00  3.784226e+01  1.131242e+02
    endloop
  endfacet
  facet normal -3.552741e-01 -1.928933e-01 -9.146433e-01
    outer loop
      vertex   1.046146e+01 -5.192536e+00  1.591690e+01
      vertex   1.073898e+01 -2.460578e+01  1.990325e+01
      vertex  -1.570508e+01 -9.305676e+00  2.694818e+01
    endloop
  endfacet
  facet normal -1.375892e-01  8.441055e-01  5.182231e-01
    outer loop
      vertex   4.941812e-01  3.852540e+01  1.096218e+02
      vertex   9.494613e+00  3.784226e+01  1.131242e+02
      vertex   1.931789e+01  4.157756e+01  1.096481e+02
    endloop
  endfacet
  facet normal  4.160488e-01 -2.930450e-01  8.608298e-01
    outer loop
      vertex   9.494613e+00  3.784226e+01  1.131242e+02
      vertex   1.830356e+01  3.378859e+01  1.074868e+02
      vertex   1.931789e+01  4.157756e+01  1.096481e+02
    endloop
  endfacet
  facet normal -5.128808e-01 -8.584472e-01 -4.660617e-03
    outer loop
      vertex   3.273176e+01 -4.014808e+01  2.296369e+01
      vertex   3.029692e+01 -3.881740e+01  4.580756e+01
      vertex   1.808069e+01 -3.146976e+01  3.677461e+01
    endloop
  endfacet
  facet normal  8.300782e-01 -3.418952e-01 -4.405426e-01
    outer loop
      vertex   4.005140e+01  2.218133e+01  1.056292e+02
      vertex   2.578526e+01  5.000154e+00  9.208261e+01
      vertex   2.976264e+01  1.709959e+01  9.018676e+01
    endloop
  endfacet
  facet normal  2.802202e-01  1.240863e-01  9.518819e-01
    outer loop
      vertex   4.005140e+01  2.218133e+01  1.056292e+02
      vertex   2.797952e+01  2.674159e+01  1.085885e+02
      vertex   2.783471e+01  8.776370e+00  1.109731e+02
    endloop
  endfacet
  facet normal  3.093482e-01 -9.283686e-01 -2.059985e-01
    outer loop
      vertex   4.706444e+01 -3.158193e+01  5.279346e+00
      vertex   7.121515e+01 -2.353356e+01  5.275071e+00
      vertex   6.096658e+01 -2.990925e+01  1.861799e+01
    endloop
  endfacet
  facet normal  2.707812e-01 -8.810257e-01  3.879062e-01
    outer loop
      vertex   7.866093e+01 -1.733266e+01  3.483067e+01
      vertex   6.096658e+01 -2.990925e+01  1.861799e+01
      vertex   8.383894e+01 -1.979173e+01  2.563101e+01
    endloop
  endfacet
  facet normal -2.910967e-01 -6.812520e-01  6.716833e-01
    outer loop
      vertex   2.888346e-01 -3.086983e+01  4.086332e+01
      vertex   3.029692e+01 -3.881740e+01  4.580756e+01
      vertex   2.900086e+01 -1.738484e+01  6.698376e+01
    endloop
  endfacet
  facet normal  7.424079e-01 -1.607863e-01 -6.503679e-01
    outer loop
      vertex   2.191557e+01  3.837051e+01  1.002602e+02
      vertex   7.566582e+00  2.151571e+01  8.804742e+01
      vertex   1.341805e+01  4.453551e+01  8.903595e+01
    endloop
  endfacet
  facet normal -4.869561e-01 -6.286028e-01  6.064093e-01
    outer loop
      vertex   3.029692e+01 -3.881740e+01  4.580756e+01
      vertex   4.473634e+01 -2.836395e+01  6.823866e+01
      vertex   2.900086e+01 -1.738484e+01  6.698376e+01
    endloop
  endfacet
  facet normal  6.833026e-01 -7.087678e-01  1.753442e-01
    outer loop
      vertex   9.729499e+00  2.681641e+01  1.010449e+02
      vertex   7.566582e+00  2.151571e+01  8.804742e+01
      vertex   2.191557e+01  3.837051e+01  1.002602e+02
    endloop
  endfacet
  facet normal  6.790060e-01 -7.242852e-01 -1.198411e-01
    outer loop
      vertex   2.191557e+01  3.837051e+01  1.002602e+02
      vertex   1.830356e+01  3.378859e+01  1.074868e+02
      vertex   9.729499e+00  2.681641e+01  1.010449e+02
    endloop
  endfacet
  facet normal  9.212779e-01 -2.106819e-01  3.268946e-01
    outer loop
      vertex   2.191557e+01  3.837051e+01  1.002602e+02
      vertex   1.931789e+01  4.157756e+01  1.096481e+02
      vertex   1.830356e+01  3.378859e+01  1.074868e+02
    endloop
  endfacet
  facet normal -5.668947e-01 -8.192251e-01 -8.660616e-02
    outer loop
      vertex   1.073898e+01 -2.460578e+01  1.990325e+01
      vertex   3.273176e+01 -4.014808e+01  2.296369e+01
      vertex   1.808069e+01 -3.146976e+01  3.677461e+01
    endloop
  endfacet
  facet normal -2.065340e-01 -1.862178e-01  9.605554e-01
    outer loop
      vertex   2.900086e+01 -1.738484e+01  6.698376e+01
      vertex   4.473634e+01 -2.836395e+01  6.823866e+01
      vertex   4.290097e+01 -3.327145e+00  7.269778e+01
    endloop
  endfacet
  facet normal  8.504626e-01 -7.832191e-03 -5.259773e-01
    outer loop
      vertex   7.501638e+01 -4.915376e+00  1.114411e+01
      vertex   8.383894e+01 -1.979173e+01  2.563101e+01
      vertex   7.121515e+01 -2.353356e+01  5.275071e+00
    endloop
  endfacet
  facet normal  4.280712e-01 -8.981540e-01 -1.003710e-01
    outer loop
      vertex   7.121515e+01 -2.353356e+01  5.275071e+00
      vertex   8.383894e+01 -1.979173e+01  2.563101e+01
      vertex   6.096658e+01 -2.990925e+01  1.861799e+01
    endloop
  endfacet
  facet normal -6.113301e-02  4.767126e-01  8.769310e-01
    outer loop
      vertex   4.290097e+01 -3.327145e+00  7.269778e+01
      vertex   6.377105e+01  7.299617e+00  6.837582e+01
      vertex   2.233416e+01  1.513077e+01  6.123003e+01
    endloop
  endfacet
endsolid vcg
