solid STL generated by MeshLab
  facet normal  3.671310e-02  2.597885e-03 -9.993225e-01
    outer loop
      vertex   7.411621e+01 -1.187986e+01  5.411946e+00
      vertex   7.121515e+01 -2.353356e+01  5.275071e+00
      vertex   6.990134e+01 -4.961698e+00  5.275085e+00
    endloop
  endfacet
  facet normal -6.792539e-03 -5.657709e-02 -9.983751e-01
    outer loop
      vertex   1.860259e+01 -3.625141e+01  5.624061e+00
      vertex   4.237514e+00 -2.835152e+01  5.274115e+00
      vertex   4.420867e+01 -3.316816e+01  5.275122e+00
    endloop
  endfacet
  facet normal  5.745691e-05  2.677067e-04 -9.999999e-01
    outer loop
      vertex   4.237514e+00 -2.835152e+01  5.274115e+00
      vertex  -3.804608e+00 -2.097016e+01  5.275629e+00
      vertex   4.420867e+01 -3.316816e+01  5.275122e+00
    endloop
  endfacet
  facet normal -2.386381e-05 -5.238469e-05 -1.000000e+00
    outer loop
      vertex  -3.804608e+00 -2.097016e+01  5.275629e+00
      vertex  -4.420458e-02 -1.275054e+01  5.275108e+00
      vertex   4.420867e+01 -3.316816e+01  5.275122e+00
    endloop
  endfacet
  facet normal -9.291131e-07 -2.676327e-06 -1.000000e+00
    outer loop
      vertex   4.420867e+01 -3.316816e+01  5.275122e+00
      vertex  -4.420458e-02 -1.275054e+01  5.275108e+00
      vertex   7.121515e+01 -2.353356e+01  5.275071e+00
    endloop
  endfacet
  facet normal -4.158486e-07  7.155727e-07 -1.000000e+00
    outer loop
      vertex   7.121515e+01 -2.353356e+01  5.275071e+00
      vertex  -4.420458e-02 -1.275054e+01  5.275108e+00
      vertex   6.990134e+01 -4.961698e+00  5.275085e+00
    endloop
  endfacet
  facet normal -1.468862e-03  6.886921e-04 -9.999987e-01
    outer loop
      vertex  -7.682463e+00  7.022605e-02  5.295157e+00
      vertex   7.049959e+00  4.102747e+00  5.276295e+00
      vertex  -4.420458e-02 -1.275054e+01  5.275108e+00
    endloop
  endfacet
  facet normal -5.826316e-04  1.426617e-03 -9.999988e-01
    outer loop
      vertex   1.214239e+01  1.742268e+01  5.292330e+00
      vertex   3.892477e+01  1.626042e+01  5.275068e+00
      vertex   7.049959e+00  4.102747e+00  5.276295e+00
    endloop
  endfacet
  facet normal -7.783928e-05  1.031602e-04 -1.000000e+00
    outer loop
      vertex   7.049959e+00  4.102747e+00  5.276295e+00
      vertex   3.892477e+01  1.626042e+01  5.275068e+00
      vertex  -4.420458e-02 -1.275054e+01  5.275108e+00
    endloop
  endfacet
  facet normal -1.699016e-07 -1.169180e-06 -1.000000e+00
    outer loop
      vertex   3.892477e+01  1.626042e+01  5.275068e+00
      vertex   5.599254e+01  1.834596e+00  5.275082e+00
      vertex  -4.420458e-02 -1.275054e+01  5.275108e+00
    endloop
  endfacet
  facet normal -2.329407e-07 -9.269810e-07 -1.000000e+00
    outer loop
      vertex   5.599254e+01  1.834596e+00  5.275082e+00
      vertex   6.990134e+01 -4.961698e+00  5.275085e+00
      vertex  -4.420458e-02 -1.275054e+01  5.275108e+00
    endloop
  endfacet
  facet normal  1.194434e-01 -9.928127e-01 -7.497781e-03
    outer loop
      vertex   1.860259e+01 -3.625141e+01  5.624061e+00
      vertex   4.420867e+01 -3.316816e+01  5.275122e+00
      vertex   2.497451e+01 -3.560827e+01  2.197099e+01
    endloop
  endfacet
  facet normal -5.101669e-01 -8.067668e-01  2.980890e-01
    outer loop
      vertex  -5.820401e+00 -2.625788e+01  8.779642e+01
      vertex  -2.288052e+01 -2.503929e+01  6.189682e+01
      vertex  -7.008537e+00 -3.492607e+01  6.230283e+01
    endloop
  endfacet
  facet normal -2.429979e-01 -9.546014e-01  1.723025e-01
    outer loop
      vertex  -2.218829e+00 -2.552628e+01  1.182134e+01
      vertex   4.237514e+00 -2.835152e+01  5.274115e+00
      vertex   1.594293e+01 -2.862562e+01  2.026368e+01
    endloop
  endfacet
  facet normal  4.329543e-02  9.982631e-01 -3.995422e-02
    outer loop
      vertex   2.959451e+01  1.710550e+01  1.627911e+01
      vertex   3.892477e+01  1.626042e+01  5.275068e+00
      vertex   1.214239e+01  1.742268e+01  5.292330e+00
    endloop
  endfacet
  facet normal -7.378618e-01  6.745566e-01  2.309595e-02
    outer loop
      vertex  -2.207230e+01 -5.701045e+00  8.548200e+01
      vertex  -4.755277e+00  1.350742e+01  7.770441e+01
      vertex  -2.279546e+01 -6.026613e+00  7.188741e+01
    endloop
  endfacet
  facet normal -7.237384e-01 -5.212639e-01  4.522021e-01
    outer loop
      vertex  -5.820401e+00 -2.625788e+01  8.779642e+01
      vertex  -2.207230e+01 -5.701045e+00  8.548200e+01
      vertex  -2.288052e+01 -2.503929e+01  6.189682e+01
    endloop
  endfacet
  facet normal -1.696565e-01  6.233939e-01  7.632802e-01
    outer loop
      vertex  -7.682463e+00  7.022605e-02  5.295157e+00
      vertex   5.414182e+00 -6.721423e+00  1.375313e+01
      vertex   7.049959e+00  4.102747e+00  5.276295e+00
    endloop
  endfacet
  facet normal -7.858143e-01  5.629504e-01 -2.560912e-01
    outer loop
      vertex  -2.107651e+01 -7.869327e+00  4.124866e+01
      vertex  -1.415214e+01  7.676481e+00  5.417474e+01
      vertex  -8.558927e+00  2.287196e+00  2.516504e+01
    endloop
  endfacet
  facet normal -9.913099e-01  5.694036e-02 -1.185855e-01
    outer loop
      vertex   7.049959e+00  4.102747e+00  5.276295e+00
      vertex   5.414182e+00 -6.721423e+00  1.375313e+01
      vertex   4.997878e+00  2.540018e+00  2.168020e+01
    endloop
  endfacet
  facet normal -8.837147e-01  4.523168e-01 -1.202406e-01
    outer loop
      vertex   3.732598e-01  2.689567e+01  9.037537e+01
      vertex  -4.755277e+00  1.350742e+01  7.770441e+01
      vertex  -9.088202e+00  8.109424e+00  8.924345e+01
    endloop
  endfacet
  facet normal -9.581659e-01  1.219986e-01  2.589100e-01
    outer loop
      vertex   6.769565e-02  3.568462e+01  8.510320e+01
      vertex  -4.755277e+00  1.350742e+01  7.770441e+01
      vertex   3.732598e-01  2.689567e+01  9.037537e+01
    endloop
  endfacet
  facet normal -7.476001e-01 -6.092635e-01 -2.643709e-01
    outer loop
      vertex  -3.064084e+00 -3.053014e+01  4.253593e+01
      vertex  -2.107651e+01 -7.869327e+00  4.124866e+01
      vertex  -7.491145e+00 -1.710127e+01  2.410710e+01
    endloop
  endfacet
  facet normal  1.228848e-01  4.210274e-01  8.986853e-01
    outer loop
      vertex   1.079481e+01  1.260363e+01  6.649560e+01
      vertex   3.430169e+01 -1.471523e+00  6.987540e+01
      vertex   3.343091e+01  1.479845e+01  6.237212e+01
    endloop
  endfacet
  facet normal -2.265567e-01  4.819679e-01 -8.463917e-01
    outer loop
      vertex  -8.558927e+00  2.287196e+00  2.516504e+01
      vertex   8.338689e+00  8.588971e+00  2.423046e+01
      vertex   4.997878e+00  2.540018e+00  2.168020e+01
    endloop
  endfacet
  facet normal -6.019640e-02  8.514349e-01 -5.209943e-01
    outer loop
      vertex   2.465275e+01  1.812161e+01  3.792423e+01
      vertex   8.338689e+00  8.588971e+00  2.423046e+01
      vertex   6.699528e+00  2.094692e+01  4.461584e+01
    endloop
  endfacet
  facet normal -7.701910e-01 -6.205702e-01 -1.473038e-01
    outer loop
      vertex  -1.495428e+01 -1.860813e+01  5.447913e+01
      vertex  -2.107651e+01 -7.869327e+00  4.124866e+01
      vertex  -3.064084e+00 -3.053014e+01  4.253593e+01
    endloop
  endfacet
  facet normal -6.170287e-01  6.499704e-01 -4.436373e-01
    outer loop
      vertex  -1.415214e+01  7.676481e+00  5.417474e+01
      vertex   6.699528e+00  2.094692e+01  4.461584e+01
      vertex   8.338689e+00  8.588971e+00  2.423046e+01
    endloop
  endfacet
  facet normal -5.245714e-01 -8.039187e-01  2.802491e-01
    outer loop
      vertex  -1.495428e+01 -1.860813e+01  5.447913e+01
      vertex  -3.064084e+00 -3.053014e+01  4.253593e+01
      vertex   1.744075e+00 -2.514873e+01  6.697290e+01
    endloop
  endfacet
  facet normal  1.804156e-01 -6.267296e-04  9.835902e-01
    outer loop
      vertex   5.246382e+00  1.367898e+01  8.661768e+01
      vertex  -9.088202e+00  8.109424e+00  8.924345e+01
      vertex   6.730006e+00  9.063884e+00  8.634260e+01
    endloop
  endfacet
  facet normal -2.624685e-01  9.082292e-01 -3.259293e-01
    outer loop
      vertex   6.730006e+00  9.063884e+00  8.634260e+01
      vertex   2.105795e+01  1.942850e+01  1.036863e+02
      vertex   2.976264e+01  1.709959e+01  9.018676e+01
    endloop
  endfacet
  facet normal -3.601843e-01  8.472245e-01  3.904842e-01
    outer loop
      vertex   6.699528e+00  2.094692e+01  4.461584e+01
      vertex  -1.415214e+01  7.676481e+00  5.417474e+01
      vertex   1.079481e+01  1.260363e+01  6.649560e+01
    endloop
  endfacet
  facet normal -1.796450e-01 -7.786320e-01  6.012152e-01
    outer loop
      vertex   1.434238e+01 -1.796761e+01  6.428786e+01
      vertex   1.603909e+01 -2.792978e+01  5.189286e+01
      vertex   2.762322e+01 -2.146336e+01  6.372888e+01
    endloop
  endfacet
  facet normal  3.879268e-01 -7.382989e-01  5.517496e-01
    outer loop
      vertex   5.246382e+00  1.367898e+01  8.661768e+01
      vertex   9.729499e+00  2.681641e+01  1.010449e+02
      vertex  -9.088202e+00  8.109424e+00  8.924345e+01
    endloop
  endfacet
  facet normal  2.570168e-01  9.180216e-01  3.019581e-01
    outer loop
      vertex   1.079481e+01  1.260363e+01  6.649560e+01
      vertex   2.465275e+01  1.812161e+01  3.792423e+01
      vertex   6.699528e+00  2.094692e+01  4.461584e+01
    endloop
  endfacet
  facet normal  2.950721e-01  8.507634e-01 -4.348955e-01
    outer loop
      vertex   5.633479e+01  1.216159e+01  1.319994e+01
      vertex   3.982306e+01  2.494209e+01  2.699873e+01
      vertex   5.846588e+01  1.836189e+01  2.677517e+01
    endloop
  endfacet
  facet normal -8.629705e-02 -6.321266e-01  7.700446e-01
    outer loop
      vertex   4.941812e-01  3.852540e+01  1.096218e+02
      vertex  -4.702133e+00  2.675110e+01  9.937400e+01
      vertex   9.729499e+00  2.681641e+01  1.010449e+02
    endloop
  endfacet
  facet normal  5.284214e-02 -9.847451e-01  1.657852e-01
    outer loop
      vertex   1.603909e+01 -2.792978e+01  5.189286e+01
      vertex  -3.064084e+00 -3.053014e+01  4.253593e+01
      vertex   1.728378e+01 -3.105782e+01  3.291591e+01
    endloop
  endfacet
  facet normal  7.436156e-01 -2.654680e-01  6.136469e-01
    outer loop
      vertex  -3.622841e+00 -6.204031e+00  9.380886e+01
      vertex  -5.820401e+00 -2.625788e+01  8.779642e+01
      vertex   1.498187e+01 -1.829611e+00  7.315613e+01
    endloop
  endfacet
  facet normal -3.964816e-01  6.060545e-01  6.895653e-01
    outer loop
      vertex  -3.622841e+00 -6.204031e+00  9.380886e+01
      vertex   1.050925e+01 -7.623546e-01  9.715179e+01
      vertex   6.730006e+00  9.063884e+00  8.634260e+01
    endloop
  endfacet
  facet normal  3.434078e-01 -8.901184e-01 -2.996005e-01
    outer loop
      vertex   5.449429e+01 -3.955219e+01  3.898677e+01
      vertex   4.534821e+01 -3.377513e+01  1.133963e+01
      vertex   6.183425e+01 -3.017474e+01  1.953942e+01
    endloop
  endfacet
  facet normal  8.619657e-01  4.872855e-01  1.398859e-01
    outer loop
      vertex   7.969745e+01 -1.259952e+01  3.330351e+01
      vertex   7.545851e+01 -3.291292e+00  2.699875e+01
      vertex   7.812164e+01 -1.297212e+01  4.431147e+01
    endloop
  endfacet
  facet normal  8.371937e-01 -5.373757e-01  1.016561e-01
    outer loop
      vertex   7.969745e+01 -1.259952e+01  3.330351e+01
      vertex   7.812164e+01 -1.297212e+01  4.431147e+01
      vertex   7.460950e+01 -2.140547e+01  2.865541e+01
    endloop
  endfacet
  facet normal  4.127347e-01  8.973599e-01  1.561899e-01
    outer loop
      vertex   5.846588e+01  1.836189e+01  2.677517e+01
      vertex   5.564806e+01  1.535754e+01  5.148223e+01
      vertex   7.250565e+01  9.120828e+00  4.276759e+01
    endloop
  endfacet
  facet normal -6.384737e-01 -6.955604e-01 -3.294648e-01
    outer loop
      vertex   4.237514e+00 -2.835152e+01  5.274115e+00
      vertex  -2.218829e+00 -2.552628e+01  1.182134e+01
      vertex  -3.804608e+00 -2.097016e+01  5.275629e+00
    endloop
  endfacet
  facet normal  5.799317e-01  6.211400e-01  5.271283e-01
    outer loop
      vertex   7.969745e+01 -1.259952e+01  3.330351e+01
      vertex   8.096775e+01 -4.744611e+00  2.265015e+01
      vertex   7.545851e+01 -3.291292e+00  2.699875e+01
    endloop
  endfacet
  facet normal -4.328762e-01 -5.078302e-01  7.447997e-01
    outer loop
      vertex   1.594293e+01 -2.862562e+01  2.026368e+01
      vertex   7.280730e+00 -2.060032e+01  2.070115e+01
      vertex  -2.218829e+00 -2.552628e+01  1.182134e+01
    endloop
  endfacet
  facet normal  3.645815e-01  9.184716e-01  1.532652e-01
    outer loop
      vertex   2.882715e+01  2.818720e+01  3.839854e+01
      vertex   5.564806e+01  1.535754e+01  5.148223e+01
      vertex   5.846588e+01  1.836189e+01  2.677517e+01
    endloop
  endfacet
  facet normal  9.757187e-01  1.409319e-01  1.676640e-01
    outer loop
      vertex   8.255521e+01 -1.923796e+01  2.225285e+01
      vertex   7.969745e+01 -1.259952e+01  3.330351e+01
      vertex   8.216732e+01 -2.277938e+01  2.748692e+01
    endloop
  endfacet
  facet normal -6.223213e-01  5.636849e-01  5.431165e-01
    outer loop
      vertex  -2.218829e+00 -2.552628e+01  1.182134e+01
      vertex   1.042409e+01 -1.082910e+01  1.105425e+01
      vertex  -3.804608e+00 -2.097016e+01  5.275629e+00
    endloop
  endfacet
  facet normal  9.762356e-01  1.016806e-01  1.913770e-01
    outer loop
      vertex   7.969745e+01 -1.259952e+01  3.330351e+01
      vertex   8.255521e+01 -1.923796e+01  2.225285e+01
      vertex   8.096775e+01 -4.744611e+00  2.265015e+01
    endloop
  endfacet
  facet normal -6.861088e-01  6.108335e-01  3.951419e-01
    outer loop
      vertex   7.280730e+00 -2.060032e+01  2.070115e+01
      vertex   1.042409e+01 -1.082910e+01  1.105425e+01
      vertex  -2.218829e+00 -2.552628e+01  1.182134e+01
    endloop
  endfacet
  facet normal  6.778722e-01 -7.345859e-01  2.954274e-02
    outer loop
      vertex   5.449429e+01 -3.955219e+01  3.898677e+01
      vertex   7.460950e+01 -2.140547e+01  2.865541e+01
      vertex   6.901617e+01 -2.533400e+01  5.931332e+01
    endloop
  endfacet
  facet normal -6.325752e-01 -3.779280e-01  6.760318e-01
    outer loop
      vertex  -4.420458e-02 -1.275054e+01  5.275108e+00
      vertex   5.414182e+00 -6.721423e+00  1.375313e+01
      vertex  -7.682463e+00  7.022605e-02  5.295157e+00
    endloop
  endfacet
  facet normal  8.503278e-01 -5.187302e-01  8.866605e-02
    outer loop
      vertex   6.901617e+01 -2.533400e+01  5.931332e+01
      vertex   7.460950e+01 -2.140547e+01  2.865541e+01
      vertex   7.812164e+01 -1.297212e+01  4.431147e+01
    endloop
  endfacet
  facet normal -9.118339e-02  9.744895e-01 -2.050754e-01
    outer loop
      vertex  -1.415214e+01  7.676481e+00  5.417474e+01
      vertex  -4.755277e+00  1.350742e+01  7.770441e+01
      vertex   1.079481e+01  1.260363e+01  6.649560e+01
    endloop
  endfacet
  facet normal -7.477401e-01  6.495672e-01  1.376486e-01
    outer loop
      vertex  -4.755277e+00  1.350742e+01  7.770441e+01
      vertex  -1.415214e+01  7.676481e+00  5.417474e+01
      vertex  -2.279546e+01 -6.026613e+00  7.188741e+01
    endloop
  endfacet
  facet normal -7.335927e-01  6.782998e-01  4.184577e-02
    outer loop
      vertex  -9.088202e+00  8.109424e+00  8.924345e+01
      vertex  -4.755277e+00  1.350742e+01  7.770441e+01
      vertex  -2.207230e+01 -5.701045e+00  8.548200e+01
    endloop
  endfacet
  facet normal -9.927556e-01 -1.007102e-01  6.552652e-02
    outer loop
      vertex   4.997878e+00  2.540018e+00  2.168020e+01
      vertex   5.414182e+00 -6.721423e+00  1.375313e+01
      vertex   7.280730e+00 -2.060032e+01  2.070115e+01
    endloop
  endfacet
  facet normal -6.676762e-01 -4.031141e-01 -6.258654e-01
    outer loop
      vertex   7.280730e+00 -2.060032e+01  2.070115e+01
      vertex   5.414182e+00 -6.721423e+00  1.375313e+01
      vertex   1.042409e+01 -1.082910e+01  1.105425e+01
    endloop
  endfacet
  facet normal  8.315160e-01  5.014569e-01 -2.390024e-01
    outer loop
      vertex   7.250565e+01  9.120828e+00  4.276759e+01
      vertex   7.545851e+01 -3.291292e+00  2.699875e+01
      vertex   6.506303e+01  1.090047e+01  2.060780e+01
    endloop
  endfacet
  facet normal  6.668723e-01  7.265317e-01 -1.656293e-01
    outer loop
      vertex   7.250565e+01  9.120828e+00  4.276759e+01
      vertex   6.506303e+01  1.090047e+01  2.060780e+01
      vertex   5.846588e+01  1.836189e+01  2.677517e+01
    endloop
  endfacet
  facet normal  8.930706e-01  3.742907e-01  2.496624e-01
    outer loop
      vertex   1.079481e+01  1.260363e+01  6.649560e+01
      vertex   6.730006e+00  9.063884e+00  8.634260e+01
      vertex   1.498187e+01 -1.829611e+00  7.315613e+01
    endloop
  endfacet
  facet normal  2.090316e-01  9.544225e-01  2.130338e-01
    outer loop
      vertex   6.730006e+00  9.063884e+00  8.634260e+01
      vertex   1.079481e+01  1.260363e+01  6.649560e+01
      vertex  -4.755277e+00  1.350742e+01  7.770441e+01
    endloop
  endfacet
  facet normal -7.861823e-01 -9.580377e-03 -6.179205e-01
    outer loop
      vertex  -7.491145e+00 -1.710127e+01  2.410710e+01
      vertex  -2.107651e+01 -7.869327e+00  4.124866e+01
      vertex  -8.558927e+00  2.287196e+00  2.516504e+01
    endloop
  endfacet
  facet normal  5.069760e-01  7.300873e-01  4.582007e-01
    outer loop
      vertex   5.564806e+01  1.535754e+01  5.148223e+01
      vertex   6.800071e+01 -3.458789e+00  6.779619e+01
      vertex   7.250565e+01  9.120828e+00  4.276759e+01
    endloop
  endfacet
  facet normal  8.561261e-01  5.137584e-01 -5.568119e-02
    outer loop
      vertex   5.564806e+01  1.535754e+01  5.148223e+01
      vertex   5.899600e+01  1.128037e+01  6.533935e+01
      vertex   6.800071e+01 -3.458789e+00  6.779619e+01
    endloop
  endfacet
  facet normal  9.693066e-01  2.455723e-01 -1.178569e-02
    outer loop
      vertex   7.812164e+01 -1.297212e+01  4.431147e+01
      vertex   7.545851e+01 -3.291292e+00  2.699875e+01
      vertex   7.250565e+01  9.120828e+00  4.276759e+01
    endloop
  endfacet
  facet normal  8.910162e-01 -1.275860e-01  4.356741e-01
    outer loop
      vertex   6.800071e+01 -3.458789e+00  6.779619e+01
      vertex   6.901617e+01 -2.533400e+01  5.931332e+01
      vertex   7.812164e+01 -1.297212e+01  4.431147e+01
    endloop
  endfacet
  facet normal  1.415614e-01  4.483510e-01  8.825768e-01
    outer loop
      vertex   1.079481e+01  1.260363e+01  6.649560e+01
      vertex   1.498187e+01 -1.829611e+00  7.315613e+01
      vertex   3.430169e+01 -1.471523e+00  6.987540e+01
    endloop
  endfacet
  facet normal  9.212859e-01  2.547237e-01  2.938507e-01
    outer loop
      vertex   7.812164e+01 -1.297212e+01  4.431147e+01
      vertex   7.250565e+01  9.120828e+00  4.276759e+01
      vertex   6.800071e+01 -3.458789e+00  6.779619e+01
    endloop
  endfacet
  facet normal -3.095882e-01 -5.294404e-01 -7.898405e-01
    outer loop
      vertex  -1.495428e+01 -1.860813e+01  5.447913e+01
      vertex  -7.008537e+00 -3.492607e+01  6.230283e+01
      vertex  -2.288052e+01 -2.503929e+01  6.189682e+01
    endloop
  endfacet
  facet normal  5.654519e-01 -1.161653e-01 -8.165598e-01
    outer loop
      vertex   1.744075e+00 -2.514873e+01  6.697290e+01
      vertex  -7.008537e+00 -3.492607e+01  6.230283e+01
      vertex  -1.495428e+01 -1.860813e+01  5.447913e+01
    endloop
  endfacet
  facet normal -6.039814e-01  7.969983e-01  3.702380e-04
    outer loop
      vertex   7.049959e+00  4.102747e+00  5.276295e+00
      vertex   4.997878e+00  2.540018e+00  2.168020e+01
      vertex   1.325020e+01  8.796222e+00  1.645174e+01
    endloop
  endfacet
  facet normal -1.374936e-01  7.196688e-01 -6.805677e-01
    outer loop
      vertex   6.730006e+00  9.063884e+00  8.634260e+01
      vertex   2.976264e+01  1.709959e+01  9.018676e+01
      vertex   1.498187e+01 -1.829611e+00  7.315613e+01
    endloop
  endfacet
  facet normal  8.639272e-01 -3.419295e-01 -3.697487e-01
    outer loop
      vertex   2.578526e+01  5.000154e+00  9.208261e+01
      vertex   1.498187e+01 -1.829611e+00  7.315613e+01
      vertex   2.976264e+01  1.709959e+01  9.018676e+01
    endloop
  endfacet
  facet normal -3.600270e-01  7.204850e-01  5.926904e-01
    outer loop
      vertex   1.325020e+01  8.796222e+00  1.645174e+01
      vertex   2.959451e+01  1.710550e+01  1.627911e+01
      vertex   1.214239e+01  1.742268e+01  5.292330e+00
    endloop
  endfacet
  facet normal -9.312631e-01  1.727361e-01 -3.207977e-01
    outer loop
      vertex  -2.279546e+01 -6.026613e+00  7.188741e+01
      vertex  -1.415214e+01  7.676481e+00  5.417474e+01
      vertex  -2.288052e+01 -2.503929e+01  6.189682e+01
    endloop
  endfacet
  facet normal -6.886811e-01  1.262128e-02 -7.249545e-01
    outer loop
      vertex  -2.288052e+01 -2.503929e+01  6.189682e+01
      vertex  -1.415214e+01  7.676481e+00  5.417474e+01
      vertex  -1.495428e+01 -1.860813e+01  5.447913e+01
    endloop
  endfacet
  facet normal -8.967596e-01  3.247771e-02  4.413247e-01
    outer loop
      vertex  -1.495428e+01 -1.860813e+01  5.447913e+01
      vertex  -1.415214e+01  7.676481e+00  5.417474e+01
      vertex  -2.107651e+01 -7.869327e+00  4.124866e+01
    endloop
  endfacet
  facet normal -5.829206e-01 -5.992712e-01 -5.487054e-01
    outer loop
      vertex   7.280730e+00 -2.060032e+01  2.070115e+01
      vertex   1.594293e+01 -2.862562e+01  2.026368e+01
      vertex  -3.064084e+00 -3.053014e+01  4.253593e+01
    endloop
  endfacet
  facet normal -3.079112e-01 -8.026122e-01 -5.108859e-01
    outer loop
      vertex  -7.491145e+00 -1.710127e+01  2.410710e+01
      vertex   7.280730e+00 -2.060032e+01  2.070115e+01
      vertex  -3.064084e+00 -3.053014e+01  4.253593e+01
    endloop
  endfacet
  facet normal -1.088258e-01 -9.782619e-01 -1.765234e-01
    outer loop
      vertex   1.594293e+01 -2.862562e+01  2.026368e+01
      vertex   1.728378e+01 -3.105782e+01  3.291591e+01
      vertex  -3.064084e+00 -3.053014e+01  4.253593e+01
    endloop
  endfacet
  facet normal -3.509909e-01  9.061476e-01 -2.360126e-01
    outer loop
      vertex   8.338689e+00  8.588971e+00  2.423046e+01
      vertex  -8.558927e+00  2.287196e+00  2.516504e+01
      vertex  -1.415214e+01  7.676481e+00  5.417474e+01
    endloop
  endfacet
  facet normal -9.982765e-01 -2.373656e-02  5.367165e-02
    outer loop
      vertex  -2.207230e+01 -5.701045e+00  8.548200e+01
      vertex  -2.279546e+01 -6.026613e+00  7.188741e+01
      vertex  -2.288052e+01 -2.503929e+01  6.189682e+01
    endloop
  endfacet
  facet normal -3.955269e-01 -9.100368e-01  1.240624e-01
    outer loop
      vertex   1.603909e+01 -2.792978e+01  5.189286e+01
      vertex   1.728378e+01 -3.105782e+01  3.291591e+01
      vertex   2.172145e+01 -3.175747e+01  4.193164e+01
    endloop
  endfacet
  facet normal -6.883951e-02  7.620825e-01 -6.438100e-01
    outer loop
      vertex   6.769565e-02  3.568462e+01  8.510320e+01
      vertex   1.082021e+01  4.618854e+01  9.638705e+01
      vertex   1.621412e+01  4.132446e+01  9.005266e+01
    endloop
  endfacet
  facet normal  3.056469e-02 -9.773902e-01  2.092230e-01
    outer loop
      vertex   1.603909e+01 -2.792978e+01  5.189286e+01
      vertex   1.744075e+00 -2.514873e+01  6.697290e+01
      vertex  -3.064084e+00 -3.053014e+01  4.253593e+01
    endloop
  endfacet
  facet normal  4.920722e-01 -6.444281e-01  5.853011e-01
    outer loop
      vertex   1.603909e+01 -2.792978e+01  5.189286e+01
      vertex   1.434238e+01 -1.796761e+01  6.428786e+01
      vertex   1.744075e+00 -2.514873e+01  6.697290e+01
    endloop
  endfacet
  facet normal -4.061812e-01 -2.213023e-01  8.865902e-01
    outer loop
      vertex  -2.207230e+01 -5.701045e+00  8.548200e+01
      vertex  -5.820401e+00 -2.625788e+01  8.779642e+01
      vertex  -3.622841e+00 -6.204031e+00  9.380886e+01
    endloop
  endfacet
  facet normal -1.002754e-01 -4.567602e-01  8.839203e-01
    outer loop
      vertex  -4.702133e+00  2.675110e+01  9.937400e+01
      vertex  -9.088202e+00  8.109424e+00  8.924345e+01
      vertex   9.729499e+00  2.681641e+01  1.010449e+02
    endloop
  endfacet
  facet normal -7.913275e-01  4.250231e-01 -4.394953e-01
    outer loop
      vertex  -4.702133e+00  2.675110e+01  9.937400e+01
      vertex   3.732598e-01  2.689567e+01  9.037537e+01
      vertex  -9.088202e+00  8.109424e+00  8.924345e+01
    endloop
  endfacet
  facet normal -2.755727e-01 -9.394314e-01  2.037852e-01
    outer loop
      vertex   2.172145e+01 -3.175747e+01  4.193164e+01
      vertex   3.288193e+01 -3.180992e+01  5.678185e+01
      vertex   1.603909e+01 -2.792978e+01  5.189286e+01
    endloop
  endfacet
  facet normal -4.046252e-01  1.340330e-01  9.046069e-01
    outer loop
      vertex  -2.207230e+01 -5.701045e+00  8.548200e+01
      vertex  -3.622841e+00 -6.204031e+00  9.380886e+01
      vertex  -9.088202e+00  8.109424e+00  8.924345e+01
    endloop
  endfacet
  facet normal  1.483115e-01  3.514688e-01  9.243773e-01
    outer loop
      vertex   6.730006e+00  9.063884e+00  8.634260e+01
      vertex  -9.088202e+00  8.109424e+00  8.924345e+01
      vertex  -3.622841e+00 -6.204031e+00  9.380886e+01
    endloop
  endfacet
  facet normal  3.416479e-02 -9.937913e-01 -1.058845e-01
    outer loop
      vertex   2.497451e+01 -3.560827e+01  2.197099e+01
      vertex   4.420867e+01 -3.316816e+01  5.275122e+00
      vertex   4.534821e+01 -3.377513e+01  1.133963e+01
    endloop
  endfacet
  facet normal -8.148832e-01  2.577085e-01  5.191836e-01
    outer loop
      vertex   1.050925e+01 -7.623546e-01  9.715179e+01
      vertex   2.105795e+01  1.942850e+01  1.036863e+02
      vertex   6.730006e+00  9.063884e+00  8.634260e+01
    endloop
  endfacet
  facet normal  3.202962e-01 -9.005006e-01 -2.941242e-01
    outer loop
      vertex   4.534821e+01 -3.377513e+01  1.133963e+01
      vertex   5.449429e+01 -3.955219e+01  3.898677e+01
      vertex   3.568939e+01 -4.173228e+01  2.518323e+01
    endloop
  endfacet
  facet normal  4.533571e-01 -6.220703e-01 -6.383540e-01
    outer loop
      vertex   5.633910e+01 -2.871243e+01  1.421177e+01
      vertex   6.183425e+01 -3.017474e+01  1.953942e+01
      vertex   4.534821e+01 -3.377513e+01  1.133963e+01
    endloop
  endfacet
  facet normal -6.979921e-01  1.372014e-01  7.028391e-01
    outer loop
      vertex   1.050925e+01 -7.623546e-01  9.715179e+01
      vertex   2.940592e+01  1.593255e+01  1.126591e+02
      vertex   2.105795e+01  1.942850e+01  1.036863e+02
    endloop
  endfacet
  facet normal -2.944623e-01 -4.498771e-01  8.431504e-01
    outer loop
      vertex   2.940592e+01  1.593255e+01  1.126591e+02
      vertex   1.050925e+01 -7.623546e-01  9.715179e+01
      vertex   2.885281e+01  7.016255e+00  1.077085e+02
    endloop
  endfacet
  facet normal  3.497018e-02  9.918808e-01  1.222687e-01
    outer loop
      vertex   2.465275e+01  1.812161e+01  3.792423e+01
      vertex   3.343091e+01  1.479845e+01  6.237212e+01
      vertex   5.564806e+01  1.535754e+01  5.148223e+01
    endloop
  endfacet
  facet normal  1.635866e-01 -3.394384e-01  9.262942e-01
    outer loop
      vertex   1.498187e+01 -1.829611e+00  7.315613e+01
      vertex   2.762322e+01 -2.146336e+01  6.372888e+01
      vertex   3.430169e+01 -1.471523e+00  6.987540e+01
    endloop
  endfacet
  facet normal -6.676415e-02  9.851973e-01  1.578886e-01
    outer loop
      vertex   1.079481e+01  1.260363e+01  6.649560e+01
      vertex   3.343091e+01  1.479845e+01  6.237212e+01
      vertex   2.465275e+01  1.812161e+01  3.792423e+01
    endloop
  endfacet
  facet normal  8.091815e-01  3.981395e-01 -4.320999e-01
    outer loop
      vertex   6.506303e+01  1.090047e+01  2.060780e+01
      vertex   7.545851e+01 -3.291292e+00  2.699875e+01
      vertex   6.464956e+01  9.268132e-01  1.064371e+01
    endloop
  endfacet
  facet normal  9.070563e-01  1.104862e-01 -4.062533e-01
    outer loop
      vertex   7.411621e+01 -1.187986e+01  5.411946e+00
      vertex   8.096775e+01 -4.744611e+00  2.265015e+01
      vertex   8.255521e+01 -1.923796e+01  2.225285e+01
    endloop
  endfacet
  facet normal  6.771501e-01 -7.057188e-01  2.083960e-01
    outer loop
      vertex   1.744075e+00 -2.514873e+01  6.697290e+01
      vertex  -5.820401e+00 -2.625788e+01  8.779642e+01
      vertex  -7.008537e+00 -3.492607e+01  6.230283e+01
    endloop
  endfacet
  facet normal  3.163627e-02 -9.930074e-01  1.137346e-01
    outer loop
      vertex   2.722882e+01 -4.011615e+01  4.164696e+01
      vertex   3.568939e+01 -4.173228e+01  2.518323e+01
      vertex   5.449429e+01 -3.955219e+01  3.898677e+01
    endloop
  endfacet
  facet normal -6.824849e-01  6.274545e-01 -3.748538e-01
    outer loop
      vertex   3.732598e-01  2.689567e+01  9.037537e+01
      vertex  -4.702133e+00  2.675110e+01  9.937400e+01
      vertex   4.941812e-01  3.852540e+01  1.096218e+02
    endloop
  endfacet
  facet normal  4.236421e-01 -4.490843e-01  7.866706e-01
    outer loop
      vertex   1.498187e+01 -1.829611e+00  7.315613e+01
      vertex   1.744075e+00 -2.514873e+01  6.697290e+01
      vertex   1.434238e+01 -1.796761e+01  6.428786e+01
    endloop
  endfacet
  facet normal  3.815663e-02 -9.824072e-01  1.828120e-01
    outer loop
      vertex   4.175906e+01 -3.798755e+01  5.005301e+01
      vertex   2.722882e+01 -4.011615e+01  4.164696e+01
      vertex   5.449429e+01 -3.955219e+01  3.898677e+01
    endloop
  endfacet
  facet normal  4.512068e-01  5.338403e-01 -7.151412e-01
    outer loop
      vertex   3.892477e+01  1.626042e+01  5.275068e+00
      vertex   5.633479e+01  1.216159e+01  1.319994e+01
      vertex   5.599254e+01  1.834596e+00  5.275082e+00
    endloop
  endfacet
  facet normal  1.907606e-01  9.778046e-01  8.665186e-02
    outer loop
      vertex   5.633479e+01  1.216159e+01  1.319994e+01
      vertex   3.892477e+01  1.626042e+01  5.275068e+00
      vertex   2.959451e+01  1.710550e+01  1.627911e+01
    endloop
  endfacet
  facet normal  4.886657e-01  5.209050e-01 -6.999027e-01
    outer loop
      vertex   5.599254e+01  1.834596e+00  5.275082e+00
      vertex   5.633479e+01  1.216159e+01  1.319994e+01
      vertex   6.464956e+01  9.268132e-01  1.064371e+01
    endloop
  endfacet
  facet normal  5.804338e-01  5.633572e-01 -5.879840e-01
    outer loop
      vertex   5.633479e+01  1.216159e+01  1.319994e+01
      vertex   6.506303e+01  1.090047e+01  2.060780e+01
      vertex   6.464956e+01  9.268132e-01  1.064371e+01
    endloop
  endfacet
  facet normal  8.067284e-01 -5.282096e-01  2.649223e-01
    outer loop
      vertex  -5.820401e+00 -2.625788e+01  8.779642e+01
      vertex   1.744075e+00 -2.514873e+01  6.697290e+01
      vertex   1.498187e+01 -1.829611e+00  7.315613e+01
    endloop
  endfacet
  facet normal -8.115366e-01  2.795647e-01  5.130809e-01
    outer loop
      vertex   1.082021e+01  4.618854e+01  9.638705e+01
      vertex   6.769565e-02  3.568462e+01  8.510320e+01
      vertex   3.732598e-01  2.689567e+01  9.037537e+01
    endloop
  endfacet
  facet normal -7.910360e-01  5.257902e-01 -3.127408e-01
    outer loop
      vertex   4.941812e-01  3.852540e+01  1.096218e+02
      vertex   1.082021e+01  4.618854e+01  9.638705e+01
      vertex   3.732598e-01  2.689567e+01  9.037537e+01
    endloop
  endfacet
  facet normal  3.358141e-01 -9.361436e-01  1.042303e-01
    outer loop
      vertex  -3.622841e+00 -6.204031e+00  9.380886e+01
      vertex   1.498187e+01 -1.829611e+00  7.315613e+01
      vertex   1.050925e+01 -7.623546e-01  9.715179e+01
    endloop
  endfacet
  facet normal -1.814805e-01 -8.319317e-01  5.243611e-01
    outer loop
      vertex   4.175906e+01 -3.798755e+01  5.005301e+01
      vertex   3.288193e+01 -3.180992e+01  5.678185e+01
      vertex   2.722882e+01 -4.011615e+01  4.164696e+01
    endloop
  endfacet
  facet normal  3.830953e-01 -9.168710e-01  1.121859e-01
    outer loop
      vertex   1.050925e+01 -7.623546e-01  9.715179e+01
      vertex   1.498187e+01 -1.829611e+00  7.315613e+01
      vertex   2.578526e+01  5.000154e+00  9.208261e+01
    endloop
  endfacet
  facet normal -1.467201e-01  9.013715e-01  4.074343e-01
    outer loop
      vertex   1.082021e+01  4.618854e+01  9.638705e+01
      vertex   4.941812e-01  3.852540e+01  1.096218e+02
      vertex   1.931789e+01  4.157756e+01  1.096481e+02
    endloop
  endfacet
  facet normal  2.178778e-01 -8.368564e-01  5.021958e-01
    outer loop
      vertex   6.901617e+01 -2.533400e+01  5.931332e+01
      vertex   4.563977e+01 -2.449731e+01  7.084943e+01
      vertex   4.175906e+01 -3.798755e+01  5.005301e+01
    endloop
  endfacet
  facet normal  5.972625e-01  7.949692e-01 -1.063085e-01
    outer loop
      vertex   1.931789e+01  4.157756e+01  1.096481e+02
      vertex   2.191557e+01  3.837051e+01  1.002602e+02
      vertex   1.082021e+01  4.618854e+01  9.638705e+01
    endloop
  endfacet
  facet normal  2.598923e-01 -8.685954e-01  4.218980e-01
    outer loop
      vertex   4.175906e+01 -3.798755e+01  5.005301e+01
      vertex   5.449429e+01 -3.955219e+01  3.898677e+01
      vertex   6.901617e+01 -2.533400e+01  5.931332e+01
    endloop
  endfacet
  facet normal  1.022670e-01  9.607263e-01  2.579658e-01
    outer loop
      vertex   3.343091e+01  1.479845e+01  6.237212e+01
      vertex   5.899600e+01  1.128037e+01  6.533935e+01
      vertex   5.564806e+01  1.535754e+01  5.148223e+01
    endloop
  endfacet
  facet normal  4.112894e-01 -3.128967e-01  8.561172e-01
    outer loop
      vertex   4.563977e+01 -2.449731e+01  7.084943e+01
      vertex   6.901617e+01 -2.533400e+01  5.931332e+01
      vertex   6.800071e+01 -3.458789e+00  6.779619e+01
    endloop
  endfacet
  facet normal  6.245036e-01 -7.692284e-01 -1.352147e-01
    outer loop
      vertex   7.460950e+01 -2.140547e+01  2.865541e+01
      vertex   5.449429e+01 -3.955219e+01  3.898677e+01
      vertex   6.183425e+01 -3.017474e+01  1.953942e+01
    endloop
  endfacet
  facet normal  2.410862e-01  7.945856e-01 -5.572352e-01
    outer loop
      vertex   2.919860e+01  3.066871e+01  1.092915e+02
      vertex   3.821884e+01  1.873624e+01  9.617908e+01
      vertex   2.976264e+01  1.709959e+01  9.018676e+01
    endloop
  endfacet
  facet normal  6.558661e-01  7.253878e-01 -2.089312e-01
    outer loop
      vertex   3.821884e+01  1.873624e+01  9.617908e+01
      vertex   2.919860e+01  3.066871e+01  1.092915e+02
      vertex   3.800274e+01  2.310181e+01  1.106575e+02
    endloop
  endfacet
  facet normal  3.329339e-01  9.414515e-01  5.314120e-02
    outer loop
      vertex   2.882715e+01  2.818720e+01  3.839854e+01
      vertex   5.846588e+01  1.836189e+01  2.677517e+01
      vertex   3.982306e+01  2.494209e+01  2.699873e+01
    endloop
  endfacet
  facet normal  8.724759e-01 -4.761517e-01 -1.098426e-01
    outer loop
      vertex   2.578526e+01  5.000154e+00  9.208261e+01
      vertex   3.800274e+01  2.310181e+01  1.106575e+02
      vertex   2.885281e+01  7.016255e+00  1.077085e+02
    endloop
  endfacet
  facet normal  2.932042e-01  9.546114e-01  5.242544e-02
    outer loop
      vertex   7.545851e+01 -3.291292e+00  2.699875e+01
      vertex   8.096775e+01 -4.744611e+00  2.265015e+01
      vertex   6.464956e+01  9.268132e-01  1.064371e+01
    endloop
  endfacet
  facet normal  4.732550e-01  7.708657e-01 -4.263751e-01
    outer loop
      vertex   6.506303e+01  1.090047e+01  2.060780e+01
      vertex   5.633479e+01  1.216159e+01  1.319994e+01
      vertex   5.846588e+01  1.836189e+01  2.677517e+01
    endloop
  endfacet
  facet normal -2.030087e-01  8.726158e-01 -4.442176e-01
    outer loop
      vertex   2.882715e+01  2.818720e+01  3.839854e+01
      vertex   3.982306e+01  2.494209e+01  2.699873e+01
      vertex   2.959451e+01  1.710550e+01  1.627911e+01
    endloop
  endfacet
  facet normal -4.567438e-01 -8.770962e-01 -1.486179e-01
    outer loop
      vertex   2.722882e+01 -4.011615e+01  4.164696e+01
      vertex   2.497451e+01 -3.560827e+01  2.197099e+01
      vertex   3.568939e+01 -4.173228e+01  2.518323e+01
    endloop
  endfacet
  facet normal  3.348032e-01 -2.229811e-01  9.155251e-01
    outer loop
      vertex   4.563977e+01 -2.449731e+01  7.084943e+01
      vertex   6.800071e+01 -3.458789e+00  6.779619e+01
      vertex   4.771593e+01 -6.238910e+00  7.453712e+01
    endloop
  endfacet
  facet normal -6.203176e-01 -7.361361e-01  2.707577e-01
    outer loop
      vertex   1.594293e+01 -2.862562e+01  2.026368e+01
      vertex   1.860259e+01 -3.625141e+01  5.624061e+00
      vertex   2.497451e+01 -3.560827e+01  2.197099e+01
    endloop
  endfacet
  facet normal -3.890691e-01  1.183055e-01  9.135804e-01
    outer loop
      vertex   2.465275e+01  1.812161e+01  3.792423e+01
      vertex   5.564806e+01  1.535754e+01  5.148223e+01
      vertex   2.882715e+01  2.818720e+01  3.839854e+01
    endloop
  endfacet
  facet normal  2.609043e-01  3.116926e-01  9.136611e-01
    outer loop
      vertex   5.899600e+01  1.128037e+01  6.533935e+01
      vertex   4.771593e+01 -6.238910e+00  7.453712e+01
      vertex   6.800071e+01 -3.458789e+00  6.779619e+01
    endloop
  endfacet
  facet normal -8.875066e-02 -4.769967e-01  8.744127e-01
    outer loop
      vertex   2.762322e+01 -2.146336e+01  6.372888e+01
      vertex   1.498187e+01 -1.829611e+00  7.315613e+01
      vertex   1.434238e+01 -1.796761e+01  6.428786e+01
    endloop
  endfacet
  facet normal  6.418778e-01  2.495619e-01 -7.250599e-01
    outer loop
      vertex   5.246382e+00  1.367898e+01  8.661768e+01
      vertex   6.730006e+00  9.063884e+00  8.634260e+01
      vertex  -4.755277e+00  1.350742e+01  7.770441e+01
    endloop
  endfacet
  facet normal  4.629107e-02 -4.870862e-01  8.721262e-01
    outer loop
      vertex   7.969745e+01 -1.259952e+01  3.330351e+01
      vertex   7.460950e+01 -2.140547e+01  2.865541e+01
      vertex   8.216732e+01 -2.277938e+01  2.748692e+01
    endloop
  endfacet
  facet normal -8.765901e-01  3.347186e-01  3.457646e-01
    outer loop
      vertex   1.325020e+01  8.796222e+00  1.645174e+01
      vertex   1.214239e+01  1.742268e+01  5.292330e+00
      vertex   7.049959e+00  4.102747e+00  5.276295e+00
    endloop
  endfacet
  facet normal  2.547017e-01  2.557409e-01 -9.325898e-01
    outer loop
      vertex  -4.755277e+00  1.350742e+01  7.770441e+01
      vertex   6.769565e-02  3.568462e+01  8.510320e+01
      vertex   7.480506e+00  2.790228e+01  8.499360e+01
    endloop
  endfacet
  facet normal  7.959630e-01 -3.255628e-01 -5.103448e-01
    outer loop
      vertex   1.222916e+01  2.659681e+01  9.323267e+01
      vertex   7.480506e+00  2.790228e+01  8.499360e+01
      vertex   1.621412e+01  4.132446e+01  9.005266e+01
    endloop
  endfacet
  facet normal  3.664342e-01 -9.292074e-01  4.795394e-02
    outer loop
      vertex   2.578526e+01  5.000154e+00  9.208261e+01
      vertex   2.885281e+01  7.016255e+00  1.077085e+02
      vertex   1.050925e+01 -7.623546e-01  9.715179e+01
    endloop
  endfacet
  facet normal  2.153993e-01  2.185745e-01 -9.517502e-01
    outer loop
      vertex   6.769565e-02  3.568462e+01  8.510320e+01
      vertex   1.621412e+01  4.132446e+01  9.005266e+01
      vertex   7.480506e+00  2.790228e+01  8.499360e+01
    endloop
  endfacet
  facet normal -1.462079e-01 -8.172548e-01  5.574207e-01
    outer loop
      vertex   4.175906e+01 -3.798755e+01  5.005301e+01
      vertex   4.563977e+01 -2.449731e+01  7.084943e+01
      vertex   3.288193e+01 -3.180992e+01  5.678185e+01
    endloop
  endfacet
  facet normal -7.023748e-01  5.685059e-01 -4.283347e-01
    outer loop
      vertex   1.325020e+01  8.796222e+00  1.645174e+01
      vertex   4.997878e+00  2.540018e+00  2.168020e+01
      vertex   8.338689e+00  8.588971e+00  2.423046e+01
    endloop
  endfacet
  facet normal -4.403335e-01  8.608335e-01 -2.550925e-01
    outer loop
      vertex   1.325020e+01  8.796222e+00  1.645174e+01
      vertex   8.338689e+00  8.588971e+00  2.423046e+01
      vertex   2.959451e+01  1.710550e+01  1.627911e+01
    endloop
  endfacet
  facet normal -4.119816e-01  9.009324e-01 -1.363521e-01
    outer loop
      vertex   2.465275e+01  1.812161e+01  3.792423e+01
      vertex   2.959451e+01  1.710550e+01  1.627911e+01
      vertex   8.338689e+00  8.588971e+00  2.423046e+01
    endloop
  endfacet
  facet normal -8.967613e-01  3.823987e-01 -2.226891e-01
    outer loop
      vertex   2.465275e+01  1.812161e+01  3.792423e+01
      vertex   2.882715e+01  2.818720e+01  3.839854e+01
      vertex   2.959451e+01  1.710550e+01  1.627911e+01
    endloop
  endfacet
  facet normal  7.841218e-01 -5.604044e-01  2.666458e-01
    outer loop
      vertex   9.729499e+00  2.681641e+01  1.010449e+02
      vertex   5.246382e+00  1.367898e+01  8.661768e+01
      vertex   1.222916e+01  2.659681e+01  9.323267e+01
    endloop
  endfacet
  facet normal -5.023596e-01  2.298780e-01  8.335412e-01
    outer loop
      vertex  -4.420458e-02 -1.275054e+01  5.275108e+00
      vertex  -3.804608e+00 -2.097016e+01  5.275629e+00
      vertex   1.042409e+01 -1.082910e+01  1.105425e+01
    endloop
  endfacet
  facet normal -4.589771e-01 -8.193858e-01  3.434341e-01
    outer loop
      vertex   4.237514e+00 -2.835152e+01  5.274115e+00
      vertex   1.860259e+01 -3.625141e+01  5.624061e+00
      vertex   1.594293e+01 -2.862562e+01  2.026368e+01
    endloop
  endfacet
  facet normal  9.221458e-02 -7.345375e-01  6.722730e-01
    outer loop
      vertex   9.494613e+00  3.784226e+01  1.131242e+02
      vertex   9.729499e+00  2.681641e+01  1.010449e+02
      vertex   1.830356e+01  3.378859e+01  1.074868e+02
    endloop
  endfacet
  facet normal  7.007168e-02  7.722638e-01 -6.314259e-01
    outer loop
      vertex   3.982306e+01  2.494209e+01  2.699873e+01
      vertex   5.633479e+01  1.216159e+01  1.319994e+01
      vertex   2.959451e+01  1.710550e+01  1.627911e+01
    endloop
  endfacet
  facet normal -5.755678e-01  6.585867e-01 -4.847527e-01
    outer loop
      vertex   2.976264e+01  1.709959e+01  9.018676e+01
      vertex   2.105795e+01  1.942850e+01  1.036863e+02
      vertex   2.919860e+01  3.066871e+01  1.092915e+02
    endloop
  endfacet
  facet normal -6.936615e-01  1.511818e-01  7.042570e-01
    outer loop
      vertex   2.105795e+01  1.942850e+01  1.036863e+02
      vertex   2.940592e+01  1.593255e+01  1.126591e+02
      vertex   2.919860e+01  3.066871e+01  1.092915e+02
    endloop
  endfacet
  facet normal  5.967059e-01  7.958238e-01 -1.029888e-01
    outer loop
      vertex   2.191557e+01  3.837051e+01  1.002602e+02
      vertex   1.621412e+01  4.132446e+01  9.005266e+01
      vertex   1.082021e+01  4.618854e+01  9.638705e+01
    endloop
  endfacet
  facet normal -2.321630e-01 -7.158391e-01  6.585398e-01
    outer loop
      vertex   1.042409e+01 -1.082910e+01  1.105425e+01
      vertex   5.414182e+00 -6.721423e+00  1.375313e+01
      vertex  -4.420458e-02 -1.275054e+01  5.275108e+00
    endloop
  endfacet
  facet normal -3.024582e-01 -7.069062e-01  6.393768e-01
    outer loop
      vertex   4.941812e-01  3.852540e+01  1.096218e+02
      vertex   9.729499e+00  2.681641e+01  1.010449e+02
      vertex   9.494613e+00  3.784226e+01  1.131242e+02
    endloop
  endfacet
  facet normal -2.202356e-01  1.953536e-02 -9.752511e-01
    outer loop
      vertex   4.997878e+00  2.540018e+00  2.168020e+01
      vertex   7.280730e+00 -2.060032e+01  2.070115e+01
      vertex  -7.491145e+00 -1.710127e+01  2.410710e+01
    endloop
  endfacet
  facet normal -1.375892e-01  8.441055e-01  5.182231e-01
    outer loop
      vertex   4.941812e-01  3.852540e+01  1.096218e+02
      vertex   9.494613e+00  3.784226e+01  1.131242e+02
      vertex   1.931789e+01  4.157756e+01  1.096481e+02
    endloop
  endfacet
  facet normal  4.160488e-01 -2.930450e-01  8.608298e-01
    outer loop
      vertex   9.494613e+00  3.784226e+01  1.131242e+02
      vertex   1.830356e+01  3.378859e+01  1.074868e+02
      vertex   1.931789e+01  4.157756e+01  1.096481e+02
    endloop
  endfacet
  facet normal -2.494536e-01  3.905927e-02 -9.675987e-01
    outer loop
      vertex  -7.491145e+00 -1.710127e+01  2.410710e+01
      vertex  -8.558927e+00  2.287196e+00  2.516504e+01
      vertex   4.997878e+00  2.540018e+00  2.168020e+01
    endloop
  endfacet
  facet normal -6.158087e-01 -7.804245e-01 -1.082455e-01
    outer loop
      vertex   2.497451e+01 -3.560827e+01  2.197099e+01
      vertex   2.722882e+01 -4.011615e+01  4.164696e+01
      vertex   1.728378e+01 -3.105782e+01  3.291591e+01
    endloop
  endfacet
  facet normal -7.790606e-01 -5.249803e-01  3.427248e-01
    outer loop
      vertex   2.172145e+01 -3.175747e+01  4.193164e+01
      vertex   1.728378e+01 -3.105782e+01  3.291591e+01
      vertex   2.722882e+01 -4.011615e+01  4.164696e+01
    endloop
  endfacet
  facet normal -7.019359e-01 -4.804006e-01  5.258338e-01
    outer loop
      vertex   3.288193e+01 -3.180992e+01  5.678185e+01
      vertex   2.172145e+01 -3.175747e+01  4.193164e+01
      vertex   2.722882e+01 -4.011615e+01  4.164696e+01
    endloop
  endfacet
  facet normal  5.888758e-01 -3.104995e-01 -7.462006e-01
    outer loop
      vertex   3.821884e+01  1.873624e+01  9.617908e+01
      vertex   2.578526e+01  5.000154e+00  9.208261e+01
      vertex   2.976264e+01  1.709959e+01  9.018676e+01
    endloop
  endfacet
  facet normal  6.902207e-01 -6.898792e-01  2.183165e-01
    outer loop
      vertex   3.821884e+01  1.873624e+01  9.617908e+01
      vertex   3.800274e+01  2.310181e+01  1.106575e+02
      vertex   2.578526e+01  5.000154e+00  9.208261e+01
    endloop
  endfacet
  facet normal  5.324566e-01 -4.359007e-01  7.255898e-01
    outer loop
      vertex   2.885281e+01  7.016255e+00  1.077085e+02
      vertex   3.800274e+01  2.310181e+01  1.106575e+02
      vertex   2.940592e+01  1.593255e+01  1.126591e+02
    endloop
  endfacet
  facet normal  4.067535e-02  2.231418e-01  9.739370e-01
    outer loop
      vertex   3.800274e+01  2.310181e+01  1.106575e+02
      vertex   2.919860e+01  3.066871e+01  1.092915e+02
      vertex   2.940592e+01  1.593255e+01  1.126591e+02
    endloop
  endfacet
  facet normal  4.488812e-01 -8.768606e-01 -1.721081e-01
    outer loop
      vertex   4.534821e+01 -3.377513e+01  1.133963e+01
      vertex   4.420867e+01 -3.316816e+01  5.275122e+00
      vertex   5.633910e+01 -2.871243e+01  1.421177e+01
    endloop
  endfacet
  facet normal -2.490642e-01 -7.543628e-01 -6.073745e-01
    outer loop
      vertex   3.568939e+01 -4.173228e+01  2.518323e+01
      vertex   2.497451e+01 -3.560827e+01  2.197099e+01
      vertex   4.534821e+01 -3.377513e+01  1.133963e+01
    endloop
  endfacet
  facet normal  3.359788e-01 -9.417727e-01  1.350790e-02
    outer loop
      vertex   4.420867e+01 -3.316816e+01  5.275122e+00
      vertex   7.121515e+01 -2.353356e+01  5.275071e+00
      vertex   5.633910e+01 -2.871243e+01  1.421177e+01
    endloop
  endfacet
  facet normal  3.837021e-01  7.852564e-01 -4.859476e-01
    outer loop
      vertex   6.990134e+01 -4.961698e+00  5.275085e+00
      vertex   5.599254e+01  1.834596e+00  5.275082e+00
      vertex   6.464956e+01  9.268132e-01  1.064371e+01
    endloop
  endfacet
  facet normal  4.289668e-01 -8.715973e-01  2.372880e-01
    outer loop
      vertex   7.460950e+01 -2.140547e+01  2.865541e+01
      vertex   6.183425e+01 -3.017474e+01  1.953942e+01
      vertex   8.255521e+01 -1.923796e+01  2.225285e+01
    endloop
  endfacet
  facet normal -2.311263e-01 -7.977692e-01 -5.569065e-01
    outer loop
      vertex   7.460950e+01 -2.140547e+01  2.865541e+01
      vertex   8.255521e+01 -1.923796e+01  2.225285e+01
      vertex   8.216732e+01 -2.277938e+01  2.748692e+01
    endloop
  endfacet
  facet normal -3.465811e-01 -6.379085e-01  6.877167e-01
    outer loop
      vertex   1.603909e+01 -2.792978e+01  5.189286e+01
      vertex   3.288193e+01 -3.180992e+01  5.678185e+01
      vertex   2.762322e+01 -2.146336e+01  6.372888e+01
    endloop
  endfacet
  facet normal  6.554243e-01 -1.865186e-01 -7.318673e-01
    outer loop
      vertex  -4.755277e+00  1.350742e+01  7.770441e+01
      vertex   7.480506e+00  2.790228e+01  8.499360e+01
      vertex   5.246382e+00  1.367898e+01  8.661768e+01
    endloop
  endfacet
  facet normal  8.372768e-01 -1.900559e-01 -5.126855e-01
    outer loop
      vertex   1.222916e+01  2.659681e+01  9.323267e+01
      vertex   5.246382e+00  1.367898e+01  8.661768e+01
      vertex   7.480506e+00  2.790228e+01  8.499360e+01
    endloop
  endfacet
  facet normal -6.041421e-01 -4.282755e-02  7.957249e-01
    outer loop
      vertex   2.762322e+01 -2.146336e+01  6.372888e+01
      vertex   3.557524e+01 -1.451461e+01  7.014033e+01
      vertex   3.430169e+01 -1.471523e+00  6.987540e+01
    endloop
  endfacet
  facet normal  7.819298e-01 -3.262618e-01 -5.311676e-01
    outer loop
      vertex   2.191557e+01  3.837051e+01  1.002602e+02
      vertex   1.222916e+01  2.659681e+01  9.323267e+01
      vertex   1.621412e+01  4.132446e+01  9.005266e+01
    endloop
  endfacet
  facet normal -3.731559e-01 -6.403952e-01  6.713037e-01
    outer loop
      vertex   3.288193e+01 -3.180992e+01  5.678185e+01
      vertex   4.563977e+01 -2.449731e+01  7.084943e+01
      vertex   2.762322e+01 -2.146336e+01  6.372888e+01
    endloop
  endfacet
  facet normal  6.765537e-01 -6.975245e-01  2.360819e-01
    outer loop
      vertex   9.729499e+00  2.681641e+01  1.010449e+02
      vertex   1.222916e+01  2.659681e+01  9.323267e+01
      vertex   2.191557e+01  3.837051e+01  1.002602e+02
    endloop
  endfacet
  facet normal -3.945974e-01 -3.371144e-01  8.547788e-01
    outer loop
      vertex   3.557524e+01 -1.451461e+01  7.014033e+01
      vertex   2.762322e+01 -2.146336e+01  6.372888e+01
      vertex   4.563977e+01 -2.449731e+01  7.084943e+01
    endloop
  endfacet
  facet normal  6.790060e-01 -7.242852e-01 -1.198411e-01
    outer loop
      vertex   2.191557e+01  3.837051e+01  1.002602e+02
      vertex   1.830356e+01  3.378859e+01  1.074868e+02
      vertex   9.729499e+00  2.681641e+01  1.010449e+02
    endloop
  endfacet
  facet normal  9.212779e-01 -2.106819e-01  3.268946e-01
    outer loop
      vertex   2.191557e+01  3.837051e+01  1.002602e+02
      vertex   1.931789e+01  4.157756e+01  1.096481e+02
      vertex   1.830356e+01  3.378859e+01  1.074868e+02
    endloop
  endfacet
  facet normal -5.985340e-01 -7.960707e-01 -8.960193e-02
    outer loop
      vertex   1.594293e+01 -2.862562e+01  2.026368e+01
      vertex   2.497451e+01 -3.560827e+01  2.197099e+01
      vertex   1.728378e+01 -3.105782e+01  3.291591e+01
    endloop
  endfacet
  facet normal -2.331210e-01 -1.669821e-01  9.580039e-01
    outer loop
      vertex   3.557524e+01 -1.451461e+01  7.014033e+01
      vertex   4.563977e+01 -2.449731e+01  7.084943e+01
      vertex   4.771593e+01 -6.238910e+00  7.453712e+01
    endloop
  endfacet
  facet normal -3.324498e-01 -1.330695e-02  9.430271e-01
    outer loop
      vertex   3.430169e+01 -1.471523e+00  6.987540e+01
      vertex   3.557524e+01 -1.451461e+01  7.014033e+01
      vertex   4.771593e+01 -6.238910e+00  7.453712e+01
    endloop
  endfacet
  facet normal -1.681890e-01  4.053828e-01  8.985417e-01
    outer loop
      vertex   3.430169e+01 -1.471523e+00  6.987540e+01
      vertex   4.771593e+01 -6.238910e+00  7.453712e+01
      vertex   3.343091e+01  1.479845e+01  6.237212e+01
    endloop
  endfacet
  facet normal  1.047854e-01 -9.261574e-01 -3.622879e-01
    outer loop
      vertex   6.183425e+01 -3.017474e+01  1.953942e+01
      vertex   5.633910e+01 -2.871243e+01  1.421177e+01
      vertex   7.121515e+01 -2.353356e+01  5.275071e+00
    endloop
  endfacet
  facet normal  8.372310e-01 -2.024534e-01 -5.079929e-01
    outer loop
      vertex   7.411621e+01 -1.187986e+01  5.411946e+00
      vertex   8.255521e+01 -1.923796e+01  2.225285e+01
      vertex   7.121515e+01 -2.353356e+01  5.275071e+00
    endloop
  endfacet
  facet normal  4.743987e-01 -8.751200e-01 -9.545111e-02
    outer loop
      vertex   7.121515e+01 -2.353356e+01  5.275071e+00
      vertex   8.255521e+01 -1.923796e+01  2.225285e+01
      vertex   6.183425e+01 -3.017474e+01  1.953942e+01
    endloop
  endfacet
  facet normal  7.514300e-01  4.482270e-01 -4.841957e-01
    outer loop
      vertex   6.990134e+01 -4.961698e+00  5.275085e+00
      vertex   8.096775e+01 -4.744611e+00  2.265015e+01
      vertex   7.411621e+01 -1.187986e+01  5.411946e+00
    endloop
  endfacet
  facet normal  5.235404e-01  7.798231e-01 -3.431929e-01
    outer loop
      vertex   8.096775e+01 -4.744611e+00  2.265015e+01
      vertex   6.990134e+01 -4.961698e+00  5.275085e+00
      vertex   6.464956e+01  9.268132e-01  1.064371e+01
    endloop
  endfacet
  facet normal -3.523330e-02  4.822412e-01  8.753297e-01
    outer loop
      vertex   4.771593e+01 -6.238910e+00  7.453712e+01
      vertex   5.899600e+01  1.128037e+01  6.533935e+01
      vertex   3.343091e+01  1.479845e+01  6.237212e+01
    endloop
  endfacet
endsolid vcg
