solid STL generated by MeshLab
  facet normal  4.818203e-01  9.105673e-03 -8.762227e-01
    outer loop
      vertex   7.501638e+01 -4.915376e+00  1.114411e+01
      vertex   6.479939e+01 -2.915619e+01  5.274054e+00
      vertex   6.426992e+01 -1.020950e+00  5.275289e+00
    endloop
  endfacet
  facet normal -1.308475e-05  4.366017e-05 -1.000000e+00
    outer loop
      vertex   6.479939e+01 -2.915619e+01  5.274054e+00
      vertex   1.012169e+01 -2.687460e+01  5.274869e+00
      vertex   6.426992e+01 -1.020950e+00  5.275289e+00
    endloop
  endfacet
  facet normal -1.732598e-03  9.631201e-04 -9.999980e-01
    outer loop
      vertex   4.860963e+00  3.002991e+00  5.312759e+00
      vertex   3.278329e+01  1.605844e+01  5.276955e+00
      vertex   1.012169e+01 -2.687460e+01  5.274869e+00
    endloop
  endfacet
  facet normal -2.064208e-05  5.948835e-05 -1.000000e+00
    outer loop
      vertex   3.278329e+01  1.605844e+01  5.276955e+00
      vertex   6.426992e+01 -1.020950e+00  5.275289e+00
      vertex   1.012169e+01 -2.687460e+01  5.274869e+00
    endloop
  endfacet
  facet normal -3.701665e-02 -8.869328e-01 -4.604129e-01
    outer loop
      vertex   1.012169e+01 -2.687460e+01  5.274869e+00
      vertex   6.479939e+01 -2.915619e+01  5.274054e+00
      vertex   3.239958e+01 -4.454750e+01  3.752856e+01
    endloop
  endfacet
  facet normal -7.945861e-01 -5.854457e-01  1.608921e-01
    outer loop
      vertex  -4.648476e+00 -1.561940e+01  9.370636e+01
      vertex  -2.327268e+01 -6.881252e+00  3.352424e+01
      vertex  -3.598936e+00 -2.877566e+01  5.101731e+01
    endloop
  endfacet
  facet normal -9.561267e-01 -3.321487e-02  2.910642e-01
    outer loop
      vertex  -4.648476e+00 -1.561940e+01  9.370636e+01
      vertex  -9.228559e+00  1.137963e+01  8.174209e+01
      vertex  -2.327268e+01 -6.881252e+00  3.352424e+01
    endloop
  endfacet
  facet normal -5.772290e-01 -3.957306e-01 -7.142856e-01
    outer loop
      vertex  -2.327268e+01 -6.881252e+00  3.352424e+01
      vertex   4.860963e+00  3.002991e+00  5.312759e+00
      vertex   5.997124e+00 -1.949727e+01  1.686027e+01
    endloop
  endfacet
  facet normal -4.806728e-01  8.585299e-01 -1.785500e-01
    outer loop
      vertex  -2.327268e+01 -6.881252e+00  3.352424e+01
      vertex   2.661203e+01  2.234625e+01  3.976598e+01
      vertex   4.860963e+00  3.002991e+00  5.312759e+00
    endloop
  endfacet
  facet normal  7.858056e-02  9.872003e-01 -1.387832e-01
    outer loop
      vertex   4.324472e+00  1.545651e+01  8.649472e+01
      vertex   2.317142e+01  1.740420e+01  1.110205e+02
      vertex   3.548232e+01  1.411624e+01  9.460293e+01
    endloop
  endfacet
  facet normal -5.139359e-01  8.388264e-01  1.795557e-01
    outer loop
      vertex   2.661203e+01  2.234625e+01  3.976598e+01
      vertex  -2.327268e+01 -6.881252e+00  3.352424e+01
      vertex   2.233416e+01  1.513077e+01  6.123003e+01
    endloop
  endfacet
  facet normal -1.077523e-01 -6.775607e-01  7.275307e-01
    outer loop
      vertex   1.587334e+01 -1.131116e+01  7.016626e+01
      vertex  -3.598936e+00 -2.877566e+01  5.101731e+01
      vertex   3.687909e+01 -1.244287e+01  7.222337e+01
    endloop
  endfacet
  facet normal -1.177558e-03 -7.573414e-01  6.530181e-01
    outer loop
      vertex   4.324472e+00  1.545651e+01  8.649472e+01
      vertex   8.118777e+00  3.537098e+01  1.095975e+02
      vertex  -9.228559e+00  1.137963e+01  8.174209e+01
    endloop
  endfacet
  facet normal -7.567489e-01  3.470623e-01  5.539665e-01
    outer loop
      vertex  -4.648476e+00 -1.561940e+01  9.370636e+01
      vertex   2.317142e+01  1.740420e+01  1.110205e+02
      vertex   4.324472e+00  1.545651e+01  8.649472e+01
    endloop
  endfacet
  facet normal  4.068652e-01 -9.130887e-01 -2.701255e-02
    outer loop
      vertex   3.239958e+01 -4.454750e+01  3.752856e+01
      vertex   6.479939e+01 -2.915619e+01  5.274054e+00
      vertex   7.588319e+01 -2.487830e+01  2.761653e+01
    endloop
  endfacet
  facet normal  2.365879e-01  9.612536e-01  1.414839e-01
    outer loop
      vertex   2.661203e+01  2.234625e+01  3.976598e+01
      vertex   6.773645e+01  8.706646e+00  6.366677e+01
      vertex   5.867785e+01  1.728106e+01  2.055916e+01
    endloop
  endfacet
  facet normal -2.053633e-01  6.175661e-01  7.592352e-01
    outer loop
      vertex   7.588319e+01 -2.487830e+01  2.761653e+01
      vertex   8.383894e+01 -1.979173e+01  2.563101e+01
      vertex   7.501638e+01 -4.915376e+00  1.114411e+01
    endloop
  endfacet
  facet normal  4.371803e-01 -8.845524e-01  1.626051e-01
    outer loop
      vertex   3.239958e+01 -4.454750e+01  3.752856e+01
      vertex   7.588319e+01 -2.487830e+01  2.761653e+01
      vertex   5.388942e+01 -2.772342e+01  7.127195e+01
    endloop
  endfacet
  facet normal -9.576182e-01 -1.683171e-01 -2.337449e-01
    outer loop
      vertex   1.012169e+01 -2.687460e+01  5.274869e+00
      vertex   5.997124e+00 -1.949727e+01  1.686027e+01
      vertex   4.860963e+00  3.002991e+00  5.312759e+00
    endloop
  endfacet
  facet normal -2.827588e-01  9.213992e-01 -2.665913e-01
    outer loop
      vertex  -2.327268e+01 -6.881252e+00  3.352424e+01
      vertex  -9.228559e+00  1.137963e+01  8.174209e+01
      vertex   2.233416e+01  1.513077e+01  6.123003e+01
    endloop
  endfacet
  facet normal  7.949041e-01  6.049340e-01 -4.671473e-02
    outer loop
      vertex   6.773645e+01  8.706646e+00  6.366677e+01
      vertex   7.501638e+01 -4.915376e+00  1.114411e+01
      vertex   5.867785e+01  1.728106e+01  2.055916e+01
    endloop
  endfacet
  facet normal  8.142697e-01 -2.781347e-03  5.804801e-01
    outer loop
      vertex   2.233416e+01  1.513077e+01  6.123003e+01
      vertex   4.324472e+00  1.545651e+01  8.649472e+01
      vertex   1.587334e+01 -1.131116e+01  7.016626e+01
    endloop
  endfacet
  facet normal -2.271167e-01  9.581515e-01 -1.742516e-01
    outer loop
      vertex   4.324472e+00  1.545651e+01  8.649472e+01
      vertex   2.233416e+01  1.513077e+01  6.123003e+01
      vertex  -9.228559e+00  1.137963e+01  8.174209e+01
    endloop
  endfacet
  facet normal  9.863368e-01  1.281999e-01  1.034623e-01
    outer loop
      vertex   7.588319e+01 -2.487830e+01  2.761653e+01
      vertex   7.501638e+01 -4.915376e+00  1.114411e+01
      vertex   6.773645e+01  8.706646e+00  6.366677e+01
    endloop
  endfacet
  facet normal  8.725297e-01 -2.431884e-01  4.237348e-01
    outer loop
      vertex   6.773645e+01  8.706646e+00  6.366677e+01
      vertex   5.388942e+01 -2.772342e+01  7.127195e+01
      vertex   7.588319e+01 -2.487830e+01  2.761653e+01
    endloop
  endfacet
  facet normal -7.389937e-02  3.354506e-01  9.391548e-01
    outer loop
      vertex   2.233416e+01  1.513077e+01  6.123003e+01
      vertex   1.587334e+01 -1.131116e+01  7.016626e+01
      vertex   3.687909e+01 -1.244287e+01  7.222337e+01
    endloop
  endfacet
  facet normal  2.288478e-01  5.769989e-01 -7.840286e-01
    outer loop
      vertex   4.324472e+00  1.545651e+01  8.649472e+01
      vertex   3.548232e+01  1.411624e+01  9.460293e+01
      vertex   1.587334e+01 -1.131116e+01  7.016626e+01
    endloop
  endfacet
  facet normal -5.339912e-01 -7.659222e-01 -3.580735e-01
    outer loop
      vertex  -2.327268e+01 -6.881252e+00  3.352424e+01
      vertex   5.997124e+00 -1.949727e+01  1.686027e+01
      vertex  -3.598936e+00 -2.877566e+01  5.101731e+01
    endloop
  endfacet
  facet normal -4.833241e-01 -8.009599e-01 -3.533567e-01
    outer loop
      vertex   5.997124e+00 -1.949727e+01  1.686027e+01
      vertex   3.239958e+01 -4.454750e+01  3.752856e+01
      vertex  -3.598936e+00 -2.877566e+01  5.101731e+01
    endloop
  endfacet
  facet normal -3.970061e-01  3.147131e-01  8.621727e-01
    outer loop
      vertex   4.324472e+00  1.545651e+01  8.649472e+01
      vertex  -9.228559e+00  1.137963e+01  8.174209e+01
      vertex  -4.648476e+00 -1.561940e+01  9.370636e+01
    endloop
  endfacet
  facet normal  1.141546e-01  9.345848e-01  3.369272e-01
    outer loop
      vertex   2.661203e+01  2.234625e+01  3.976598e+01
      vertex   2.233416e+01  1.513077e+01  6.123003e+01
      vertex   6.773645e+01  8.706646e+00  6.366677e+01
    endloop
  endfacet
  facet normal  5.351821e-01  6.317877e-01 -5.607356e-01
    outer loop
      vertex   5.867785e+01  1.728106e+01  2.055916e+01
      vertex   7.501638e+01 -4.915376e+00  1.114411e+01
      vertex   6.426992e+01 -1.020950e+00  5.275289e+00
    endloop
  endfacet
  facet normal  4.831446e-01 -8.332930e-01  2.686896e-01
    outer loop
      vertex   1.587334e+01 -1.131116e+01  7.016626e+01
      vertex  -4.648476e+00 -1.561940e+01  9.370636e+01
      vertex  -3.598936e+00 -2.877566e+01  5.101731e+01
    endloop
  endfacet
  facet normal  3.582405e-01  6.604971e-01 -6.598540e-01
    outer loop
      vertex   3.278329e+01  1.605844e+01  5.276955e+00
      vertex   5.867785e+01  1.728106e+01  2.055916e+01
      vertex   6.426992e+01 -1.020950e+00  5.275289e+00
    endloop
  endfacet
  facet normal -8.288417e-01  5.583712e-01  3.525764e-02
    outer loop
      vertex   8.118777e+00  3.537098e+01  1.095975e+02
      vertex   1.341805e+01  4.453551e+01  8.903595e+01
      vertex  -9.228559e+00  1.137963e+01  8.174209e+01
    endloop
  endfacet
  facet normal  5.939494e-01 -7.042575e-01  3.889028e-01
    outer loop
      vertex  -4.648476e+00 -1.561940e+01  9.370636e+01
      vertex   1.587334e+01 -1.131116e+01  7.016626e+01
      vertex   2.317142e+01  1.740420e+01  1.110205e+02
    endloop
  endfacet
  facet normal  4.200764e-01 -7.760425e-01  4.704188e-01
    outer loop
      vertex   2.317142e+01  1.740420e+01  1.110205e+02
      vertex   1.587334e+01 -1.131116e+01  7.016626e+01
      vertex   3.548232e+01  1.411624e+01  9.460293e+01
    endloop
  endfacet
  facet normal -1.275496e-01  9.177291e-01  3.761706e-01
    outer loop
      vertex   1.341805e+01  4.453551e+01  8.903595e+01
      vertex   8.118777e+00  3.537098e+01  1.095975e+02
      vertex   2.204802e+01  3.757376e+01  1.089465e+02
    endloop
  endfacet
  facet normal  5.374021e-02  9.840150e-01 -1.697833e-01
    outer loop
      vertex   2.661203e+01  2.234625e+01  3.976598e+01
      vertex   5.867785e+01  1.728106e+01  2.055916e+01
      vertex   3.278329e+01  1.605844e+01  5.276955e+00
    endloop
  endfacet
  facet normal  1.769111e-01  1.362462e-01  9.747509e-01
    outer loop
      vertex   5.388942e+01 -2.772342e+01  7.127195e+01
      vertex   6.773645e+01  8.706646e+00  6.366677e+01
      vertex   3.687909e+01 -1.244287e+01  7.222337e+01
    endloop
  endfacet
  facet normal -7.405788e-01 -6.543195e-01  1.529999e-01
    outer loop
      vertex   5.997124e+00 -1.949727e+01  1.686027e+01
      vertex   1.012169e+01 -2.687460e+01  5.274869e+00
      vertex   3.239958e+01 -4.454750e+01  3.752856e+01
    endloop
  endfacet
  facet normal  3.370151e-01 -2.313796e-02 -9.412149e-01
    outer loop
      vertex  -9.228559e+00  1.137963e+01  8.174209e+01
      vertex   1.341805e+01  4.453551e+01  8.903595e+01
      vertex   4.324472e+00  1.545651e+01  8.649472e+01
    endloop
  endfacet
  facet normal -4.120128e-01  8.805498e-01 -2.342593e-01
    outer loop
      vertex   2.661203e+01  2.234625e+01  3.976598e+01
      vertex   3.278329e+01  1.605844e+01  5.276955e+00
      vertex   4.860963e+00  3.002991e+00  5.312759e+00
    endloop
  endfacet
  facet normal -6.349982e-02 -7.283920e-01  6.822117e-01
    outer loop
      vertex  -3.598936e+00 -2.877566e+01  5.101731e+01
      vertex   3.239958e+01 -4.454750e+01  3.752856e+01
      vertex   3.687909e+01 -1.244287e+01  7.222337e+01
    endloop
  endfacet
  facet normal  8.611338e-01 -2.296578e-01 -4.535483e-01
    outer loop
      vertex   2.204802e+01  3.757376e+01  1.089465e+02
      vertex   4.324472e+00  1.545651e+01  8.649472e+01
      vertex   1.341805e+01  4.453551e+01  8.903595e+01
    endloop
  endfacet
  facet normal -5.045170e-01 -6.002700e-01  6.205953e-01
    outer loop
      vertex   3.239958e+01 -4.454750e+01  3.752856e+01
      vertex   5.388942e+01 -2.772342e+01  7.127195e+01
      vertex   3.687909e+01 -1.244287e+01  7.222337e+01
    endloop
  endfacet
  facet normal  1.498389e-01 -7.609234e-01  6.313034e-01
    outer loop
      vertex   8.118777e+00  3.537098e+01  1.095975e+02
      vertex   4.324472e+00  1.545651e+01  8.649472e+01
      vertex   2.204802e+01  3.757376e+01  1.089465e+02
    endloop
  endfacet
  facet normal  7.571680e-01 -1.661515e-01 -6.317360e-01
    outer loop
      vertex   7.501638e+01 -4.915376e+00  1.114411e+01
      vertex   8.383894e+01 -1.979173e+01  2.563101e+01
      vertex   6.479939e+01 -2.915619e+01  5.274054e+00
    endloop
  endfacet
  facet normal  5.192957e-01 -8.492977e-01 -9.500176e-02
    outer loop
      vertex   6.479939e+01 -2.915619e+01  5.274054e+00
      vertex   8.383894e+01 -1.979173e+01  2.563101e+01
      vertex   7.588319e+01 -2.487830e+01  2.761653e+01
    endloop
  endfacet
  facet normal  2.750833e-03  3.715921e-01  9.283921e-01
    outer loop
      vertex   3.687909e+01 -1.244287e+01  7.222337e+01
      vertex   6.773645e+01  8.706646e+00  6.366677e+01
      vertex   2.233416e+01  1.513077e+01  6.123003e+01
    endloop
  endfacet
endsolid vcg
