solid STL generated by MeshLab
  facet normal  5.170670e-01  1.595252e-01 -8.409480e-01
    outer loop
      vertex   7.501638e+01 -4.915376e+00  1.114411e+01
      vertex   7.121515e+01 -2.353356e+01  5.275071e+00
      vertex   6.426992e+01 -1.020950e+00  5.275289e+00
    endloop
  endfacet
  facet normal -7.792028e-03 -2.630044e-02 -9.996237e-01
    outer loop
      vertex   1.860259e+01 -3.625141e+01  5.624061e+00
      vertex   1.163658e+00 -1.781316e+01  5.274880e+00
      vertex   4.706444e+01 -3.158193e+01  5.279346e+00
    endloop
  endfacet
  facet normal -3.264702e-05 -4.332100e-04 -9.999999e-01
    outer loop
      vertex   4.706444e+01 -3.158193e+01  5.279346e+00
      vertex   1.163658e+00 -1.781316e+01  5.274880e+00
      vertex   7.121515e+01 -2.353356e+01  5.275071e+00
    endloop
  endfacet
  facet normal  3.611867e-06  1.081336e-05 -1.000000e+00
    outer loop
      vertex   7.121515e+01 -2.353356e+01  5.275071e+00
      vertex   1.163658e+00 -1.781316e+01  5.274880e+00
      vertex   6.426992e+01 -1.020950e+00  5.275289e+00
    endloop
  endfacet
  facet normal -3.142834e-04  3.546633e-04 -9.999999e-01
    outer loop
      vertex   4.561832e+00  5.324636e+00  5.282018e+00
      vertex   3.278329e+01  1.605844e+01  5.276955e+00
      vertex   1.163658e+00 -1.781316e+01  5.274880e+00
    endloop
  endfacet
  facet normal -1.305980e-05  7.346662e-05 -1.000000e+00
    outer loop
      vertex   3.278329e+01  1.605844e+01  5.276955e+00
      vertex   6.426992e+01 -1.020950e+00  5.275289e+00
      vertex   1.163658e+00 -1.781316e+01  5.274880e+00
    endloop
  endfacet
  facet normal  1.389711e-01 -8.805242e-01 -4.531712e-01
    outer loop
      vertex   1.860259e+01 -3.625141e+01  5.624061e+00
      vertex   4.706444e+01 -3.158193e+01  5.279346e+00
      vertex   3.896453e+01 -4.287867e+01  2.474526e+01
    endloop
  endfacet
  facet normal -6.265550e-01 -7.490112e-01  2.154322e-01
    outer loop
      vertex  -4.648476e+00 -1.561940e+01  9.370636e+01
      vertex  -2.603825e+01 -7.677374e+00  5.910984e+01
      vertex  -3.598936e+00 -2.877566e+01  5.101731e+01
    endloop
  endfacet
  facet normal -7.408872e-01  6.710747e-01  2.729238e-02
    outer loop
      vertex  -1.024837e+01  8.518079e+00  8.952701e+01
      vertex  -5.766042e+00  1.390788e+01  7.867930e+01
      vertex  -2.603825e+01 -7.677374e+00  5.910984e+01
    endloop
  endfacet
  facet normal -8.565055e-01 -1.114494e-01  5.039617e-01
    outer loop
      vertex  -4.648476e+00 -1.561940e+01  9.370636e+01
      vertex  -1.024837e+01  8.518079e+00  8.952701e+01
      vertex  -2.603825e+01 -7.677374e+00  5.910984e+01
    endloop
  endfacet
  facet normal -4.095173e-01  3.763016e-01 -8.310792e-01
    outer loop
      vertex  -1.570508e+01 -9.305676e+00  2.694818e+01
      vertex   1.358103e+01  7.994083e+00  2.035045e+01
      vertex   1.046146e+01 -5.192536e+00  1.591690e+01
    endloop
  endfacet
  facet normal -5.445665e-01  8.063934e-01 -2.306014e-01
    outer loop
      vertex  -2.603825e+01 -7.677374e+00  5.910984e+01
      vertex   2.661203e+01  2.234625e+01  3.976598e+01
      vertex   1.358103e+01  7.994083e+00  2.035045e+01
    endloop
  endfacet
  facet normal  1.868972e-01 -1.455723e-01  9.715339e-01
    outer loop
      vertex   7.566582e+00  2.151571e+01  8.804742e+01
      vertex  -1.024837e+01  8.518079e+00  8.952701e+01
      vertex   6.730006e+00  9.063884e+00  8.634260e+01
    endloop
  endfacet
  facet normal  1.811973e-01  6.783006e-01 -7.120925e-01
    outer loop
      vertex   6.730006e+00  9.063884e+00  8.634260e+01
      vertex   2.797952e+01  2.674159e+01  1.085885e+02
      vertex   2.630102e+01  6.694572e+00  8.906571e+01
    endloop
  endfacet
  facet normal -4.244075e-01  8.804498e-01  2.113914e-01
    outer loop
      vertex   2.661203e+01  2.234625e+01  3.976598e+01
      vertex  -2.603825e+01 -7.677374e+00  5.910984e+01
      vertex   2.233416e+01  1.513077e+01  6.123003e+01
    endloop
  endfacet
  facet normal -1.286895e-01 -6.640671e-01  7.365147e-01
    outer loop
      vertex   1.587334e+01 -1.131116e+01  7.016626e+01
      vertex  -3.598936e+00 -2.877566e+01  5.101731e+01
      vertex   2.900086e+01 -1.738484e+01  6.698376e+01
    endloop
  endfacet
  facet normal  5.526894e-01 -7.073736e-01  4.406326e-01
    outer loop
      vertex   7.566582e+00  2.151571e+01  8.804742e+01
      vertex   8.118777e+00  3.537098e+01  1.095975e+02
      vertex  -1.024837e+01  8.518079e+00  8.952701e+01
    endloop
  endfacet
  facet normal -6.643426e-01  4.777344e-01  5.748207e-01
    outer loop
      vertex  -4.648476e+00 -1.561940e+01  9.370636e+01
      vertex   2.783471e+01  8.776370e+00  1.109731e+02
      vertex   6.730006e+00  9.063884e+00  8.634260e+01
    endloop
  endfacet
  facet normal  4.122737e-01 -8.519353e-01 -3.228569e-01
    outer loop
      vertex   3.896453e+01 -4.287867e+01  2.474526e+01
      vertex   4.706444e+01 -3.158193e+01  5.279346e+00
      vertex   6.096658e+01 -2.990925e+01  1.861799e+01
    endloop
  endfacet
  facet normal  2.078162e-01  9.740108e-01  9.008511e-02
    outer loop
      vertex   2.661203e+01  2.234625e+01  3.976598e+01
      vertex   6.678268e+01  1.274639e+01  5.089170e+01
      vertex   5.867785e+01  1.728106e+01  2.055916e+01
    endloop
  endfacet
  facet normal -8.082914e-01  1.073213e-01  5.789189e-01
    outer loop
      vertex   1.073898e+01 -2.460578e+01  1.990325e+01
      vertex   1.046146e+01 -5.192536e+00  1.591690e+01
      vertex   1.163658e+00 -1.781316e+01  5.274880e+00
    endloop
  endfacet
  facet normal  7.211606e-01  6.529934e-01  2.313589e-01
    outer loop
      vertex   7.866093e+01 -1.733266e+01  3.483067e+01
      vertex   8.383894e+01 -1.979173e+01  2.563101e+01
      vertex   7.501638e+01 -4.915376e+00  1.114411e+01
    endloop
  endfacet
  facet normal  5.502615e-01 -8.331450e-01 -5.551397e-02
    outer loop
      vertex   3.896453e+01 -4.287867e+01  2.474526e+01
      vertex   7.866093e+01 -1.733266e+01  3.483067e+01
      vertex   6.901617e+01 -2.533400e+01  5.931332e+01
    endloop
  endfacet
  facet normal -8.134693e-01  1.192960e-01  5.692417e-01
    outer loop
      vertex   1.163658e+00 -1.781316e+01  5.274880e+00
      vertex   1.046146e+01 -5.192536e+00  1.591690e+01
      vertex   4.561832e+00  5.324636e+00  5.282018e+00
    endloop
  endfacet
  facet normal -3.492578e-01  7.878704e-01 -5.072270e-01
    outer loop
      vertex  -2.603825e+01 -7.677374e+00  5.910984e+01
      vertex  -5.766042e+00  1.390788e+01  7.867930e+01
      vertex   2.233416e+01  1.513077e+01  6.123003e+01
    endloop
  endfacet
  facet normal  7.761791e-01  6.199907e-01 -1.147063e-01
    outer loop
      vertex   6.678268e+01  1.274639e+01  5.089170e+01
      vertex   7.501638e+01 -4.915376e+00  1.114411e+01
      vertex   5.867785e+01  1.728106e+01  2.055916e+01
    endloop
  endfacet
  facet normal  8.523843e-01 -3.187715e-02  5.219434e-01
    outer loop
      vertex   2.233416e+01  1.513077e+01  6.123003e+01
      vertex   6.730006e+00  9.063884e+00  8.634260e+01
      vertex   1.587334e+01 -1.131116e+01  7.016626e+01
    endloop
  endfacet
  facet normal  1.615559e-01  9.316517e-01  3.254610e-01
    outer loop
      vertex   6.730006e+00  9.063884e+00  8.634260e+01
      vertex   2.233416e+01  1.513077e+01  6.123003e+01
      vertex  -5.766042e+00  1.390788e+01  7.867930e+01
    endloop
  endfacet
  facet normal  9.363191e-01  3.489908e-01  3.888490e-02
    outer loop
      vertex   7.866093e+01 -1.733266e+01  3.483067e+01
      vertex   7.501638e+01 -4.915376e+00  1.114411e+01
      vertex   6.678268e+01  1.274639e+01  5.089170e+01
    endloop
  endfacet
  facet normal  9.245957e-01  4.350878e-02  3.784573e-01
    outer loop
      vertex   6.377105e+01  7.299617e+00  6.837582e+01
      vertex   6.901617e+01 -2.533400e+01  5.931332e+01
      vertex   7.866093e+01 -1.733266e+01  3.483067e+01
    endloop
  endfacet
  facet normal -1.907974e-01  3.558080e-01  9.148754e-01
    outer loop
      vertex   2.233416e+01  1.513077e+01  6.123003e+01
      vertex   1.587334e+01 -1.131116e+01  7.016626e+01
      vertex   4.290097e+01 -3.327145e+00  7.269778e+01
    endloop
  endfacet
  facet normal  9.400778e-01  2.441607e-01  2.379903e-01
    outer loop
      vertex   7.866093e+01 -1.733266e+01  3.483067e+01
      vertex   6.678268e+01  1.274639e+01  5.089170e+01
      vertex   6.377105e+01  7.299617e+00  6.837582e+01
    endloop
  endfacet
  facet normal -8.601058e-01  3.231164e-02  5.090913e-01
    outer loop
      vertex   4.561832e+00  5.324636e+00  5.282018e+00
      vertex   1.046146e+01 -5.192536e+00  1.591690e+01
      vertex   1.358103e+01  7.994083e+00  2.035045e+01
    endloop
  endfacet
  facet normal  1.813409e-01  6.601118e-01 -7.289499e-01
    outer loop
      vertex   6.730006e+00  9.063884e+00  8.634260e+01
      vertex   2.630102e+01  6.694572e+00  8.906571e+01
      vertex   1.587334e+01 -1.131116e+01  7.016626e+01
    endloop
  endfacet
  facet normal -3.550942e-01  9.336411e-01  4.714220e-02
    outer loop
      vertex   1.358103e+01  7.994083e+00  2.035045e+01
      vertex   3.278329e+01  1.605844e+01  5.276955e+00
      vertex   4.561832e+00  5.324636e+00  5.282018e+00
    endloop
  endfacet
  facet normal -7.081755e-01 -6.791038e-01 -1.931465e-01
    outer loop
      vertex  -3.598936e+00 -2.877566e+01  5.101731e+01
      vertex  -2.603825e+01 -7.677374e+00  5.910984e+01
      vertex  -1.570508e+01 -9.305676e+00  2.694818e+01
    endloop
  endfacet
  facet normal -5.372386e-01 -7.672040e-01 -3.503892e-01
    outer loop
      vertex  -1.570508e+01 -9.305676e+00  2.694818e+01
      vertex   1.073898e+01 -2.460578e+01  1.990325e+01
      vertex  -3.598936e+00 -2.877566e+01  5.101731e+01
    endloop
  endfacet
  facet normal -2.964645e-01 -9.190326e-01 -2.597842e-01
    outer loop
      vertex   1.073898e+01 -2.460578e+01  1.990325e+01
      vertex   2.524690e+01 -3.630194e+01  4.472411e+01
      vertex  -3.598936e+00 -2.877566e+01  5.101731e+01
    endloop
  endfacet
  facet normal -5.320333e-01  8.196417e-01 -2.124335e-01
    outer loop
      vertex   1.358103e+01  7.994083e+00  2.035045e+01
      vertex  -1.570508e+01 -9.305676e+00  2.694818e+01
      vertex  -2.603825e+01 -7.677374e+00  5.910984e+01
    endloop
  endfacet
  facet normal  1.739139e-01  2.070461e-01  9.627491e-01
    outer loop
      vertex   6.730006e+00  9.063884e+00  8.634260e+01
      vertex  -1.024837e+01  8.518079e+00  8.952701e+01
      vertex  -4.648476e+00 -1.561940e+01  9.370636e+01
    endloop
  endfacet
  facet normal -7.556011e-01  9.216925e-02  6.485151e-01
    outer loop
      vertex   2.783471e+01  8.776370e+00  1.109731e+02
      vertex   2.797952e+01  2.674159e+01  1.085885e+02
      vertex   6.730006e+00  9.063884e+00  8.634260e+01
    endloop
  endfacet
  facet normal  1.288321e-01  9.319371e-01  3.389624e-01
    outer loop
      vertex   2.661203e+01  2.234625e+01  3.976598e+01
      vertex   2.233416e+01  1.513077e+01  6.123003e+01
      vertex   6.678268e+01  1.274639e+01  5.089170e+01
    endloop
  endfacet
  facet normal  3.408254e-02 -4.050713e-01  9.136496e-01
    outer loop
      vertex   1.587334e+01 -1.131116e+01  7.016626e+01
      vertex   2.900086e+01 -1.738484e+01  6.698376e+01
      vertex   4.290097e+01 -3.327145e+00  7.269778e+01
    endloop
  endfacet
  facet normal  5.351821e-01  6.317877e-01 -5.607356e-01
    outer loop
      vertex   5.867785e+01  1.728106e+01  2.055916e+01
      vertex   7.501638e+01 -4.915376e+00  1.114411e+01
      vertex   6.426992e+01 -1.020950e+00  5.275289e+00
    endloop
  endfacet
  facet normal  4.831446e-01 -8.332930e-01  2.686896e-01
    outer loop
      vertex   1.587334e+01 -1.131116e+01  7.016626e+01
      vertex  -4.648476e+00 -1.561940e+01  9.370636e+01
      vertex  -3.598936e+00 -2.877566e+01  5.101731e+01
    endloop
  endfacet
  facet normal -8.092466e-01  5.858721e-01 -4.328797e-02
    outer loop
      vertex  -5.766042e+00  1.390788e+01  7.867930e+01
      vertex  -1.024837e+01  8.518079e+00  8.952701e+01
      vertex   8.118777e+00  3.537098e+01  1.095975e+02
    endloop
  endfacet
  facet normal  5.254596e-03 -9.487687e-01  3.159279e-01
    outer loop
      vertex   4.473634e+01 -2.836395e+01  6.823866e+01
      vertex   2.524690e+01 -3.630194e+01  4.472411e+01
      vertex   3.896453e+01 -4.287867e+01  2.474526e+01
    endloop
  endfacet
  facet normal  3.582405e-01  6.604971e-01 -6.598540e-01
    outer loop
      vertex   3.278329e+01  1.605844e+01  5.276955e+00
      vertex   5.867785e+01  1.728106e+01  2.055916e+01
      vertex   6.426992e+01 -1.020950e+00  5.275289e+00
    endloop
  endfacet
  facet normal -8.497725e-01  5.269116e-01  1.584125e-02
    outer loop
      vertex   8.118777e+00  3.537098e+01  1.095975e+02
      vertex   1.341805e+01  4.453551e+01  8.903595e+01
      vertex  -5.766042e+00  1.390788e+01  7.867930e+01
    endloop
  endfacet
  facet normal  4.830808e-01 -8.333513e-01  2.686233e-01
    outer loop
      vertex  -4.648476e+00 -1.561940e+01  9.370636e+01
      vertex   1.587334e+01 -1.131116e+01  7.016626e+01
      vertex   2.783471e+01  8.776370e+00  1.109731e+02
    endloop
  endfacet
  facet normal  8.717923e-01 -4.896611e-01 -1.450107e-02
    outer loop
      vertex   2.783471e+01  8.776370e+00  1.109731e+02
      vertex   1.587334e+01 -1.131116e+01  7.016626e+01
      vertex   2.630102e+01  6.694572e+00  8.906571e+01
    endloop
  endfacet
  facet normal -3.231191e-01  8.925551e-01  3.145465e-01
    outer loop
      vertex   1.341805e+01  4.453551e+01  8.903595e+01
      vertex   8.118777e+00  3.537098e+01  1.095975e+02
      vertex   1.862602e+01  3.799924e+01  1.129331e+02
    endloop
  endfacet
  facet normal  4.506850e-01  8.811873e-01  1.428005e-01
    outer loop
      vertex   1.862602e+01  3.799924e+01  1.129331e+02
      vertex   2.191557e+01  3.837051e+01  1.002602e+02
      vertex   1.341805e+01  4.453551e+01  8.903595e+01
    endloop
  endfacet
  facet normal  2.203087e-01 -9.336713e-01  2.823507e-01
    outer loop
      vertex   4.473634e+01 -2.836395e+01  6.823866e+01
      vertex   3.896453e+01 -4.287867e+01  2.474526e+01
      vertex   6.901617e+01 -2.533400e+01  5.931332e+01
    endloop
  endfacet
  facet normal  1.236370e-01  9.411725e-01  3.144969e-01
    outer loop
      vertex   2.233416e+01  1.513077e+01  6.123003e+01
      vertex   6.377105e+01  7.299617e+00  6.837582e+01
      vertex   6.678268e+01  1.274639e+01  5.089170e+01
    endloop
  endfacet
  facet normal  3.597731e-01 -1.955304e-01  9.123218e-01
    outer loop
      vertex   4.473634e+01 -2.836395e+01  6.823866e+01
      vertex   6.901617e+01 -2.533400e+01  5.931332e+01
      vertex   6.377105e+01  7.299617e+00  6.837582e+01
    endloop
  endfacet
  facet normal  5.235997e-01 -8.476068e-01  8.605877e-02
    outer loop
      vertex   7.866093e+01 -1.733266e+01  3.483067e+01
      vertex   3.896453e+01 -4.287867e+01  2.474526e+01
      vertex   6.096658e+01 -2.990925e+01  1.861799e+01
    endloop
  endfacet
  facet normal  8.534870e-02  6.914554e-01 -7.173598e-01
    outer loop
      vertex   2.797952e+01  2.674159e+01  1.085885e+02
      vertex   4.005140e+01  2.218133e+01  1.056292e+02
      vertex   2.630102e+01  6.694572e+00  8.906571e+01
    endloop
  endfacet
  facet normal  7.414026e-01 -6.709557e-01  1.185517e-02
    outer loop
      vertex   2.630102e+01  6.694572e+00  8.906571e+01
      vertex   4.005140e+01  2.218133e+01  1.056292e+02
      vertex   2.783471e+01  8.776370e+00  1.109731e+02
    endloop
  endfacet
  facet normal  5.374021e-02  9.840150e-01 -1.697833e-01
    outer loop
      vertex   2.661203e+01  2.234625e+01  3.976598e+01
      vertex   5.867785e+01  1.728106e+01  2.055916e+01
      vertex   3.278329e+01  1.605844e+01  5.276955e+00
    endloop
  endfacet
  facet normal  2.728265e-01 -1.492709e-01  9.504125e-01
    outer loop
      vertex   4.473634e+01 -2.836395e+01  6.823866e+01
      vertex   6.377105e+01  7.299617e+00  6.837582e+01
      vertex   4.290097e+01 -3.327145e+00  7.269778e+01
    endloop
  endfacet
  facet normal -5.527877e-01 -7.684661e-01  3.223129e-01
    outer loop
      vertex   1.073898e+01 -2.460578e+01  1.990325e+01
      vertex   1.860259e+01 -3.625141e+01  5.624061e+00
      vertex   3.896453e+01 -4.287867e+01  2.474526e+01
    endloop
  endfacet
  facet normal  5.429863e-01  7.799406e-02 -8.361117e-01
    outer loop
      vertex   7.566582e+00  2.151571e+01  8.804742e+01
      vertex   6.730006e+00  9.063884e+00  8.634260e+01
      vertex  -5.766042e+00  1.390788e+01  7.867930e+01
    endloop
  endfacet
  facet normal  6.166903e-01 -1.233713e-01 -7.774783e-01
    outer loop
      vertex  -5.766042e+00  1.390788e+01  7.867930e+01
      vertex   1.341805e+01  4.453551e+01  8.903595e+01
      vertex   7.566582e+00  2.151571e+01  8.804742e+01
    endloop
  endfacet
  facet normal -5.315515e-01  8.114080e-01 -2.430434e-01
    outer loop
      vertex   2.661203e+01  2.234625e+01  3.976598e+01
      vertex   3.278329e+01  1.605844e+01  5.276955e+00
      vertex   1.358103e+01  7.994083e+00  2.035045e+01
    endloop
  endfacet
  facet normal -7.190720e-01 -6.771404e-01  1.562572e-01
    outer loop
      vertex   1.163658e+00 -1.781316e+01  5.274880e+00
      vertex   1.860259e+01 -3.625141e+01  5.624061e+00
      vertex   1.073898e+01 -2.460578e+01  1.990325e+01
    endloop
  endfacet
  facet normal -3.552741e-01 -1.928933e-01 -9.146433e-01
    outer loop
      vertex   1.046146e+01 -5.192536e+00  1.591690e+01
      vertex   1.073898e+01 -2.460578e+01  1.990325e+01
      vertex  -1.570508e+01 -9.305676e+00  2.694818e+01
    endloop
  endfacet
  facet normal  2.802202e-01  1.240863e-01  9.518819e-01
    outer loop
      vertex   4.005140e+01  2.218133e+01  1.056292e+02
      vertex   2.797952e+01  2.674159e+01  1.085885e+02
      vertex   2.783471e+01  8.776370e+00  1.109731e+02
    endloop
  endfacet
  facet normal  3.093482e-01 -9.283686e-01 -2.059985e-01
    outer loop
      vertex   4.706444e+01 -3.158193e+01  5.279346e+00
      vertex   7.121515e+01 -2.353356e+01  5.275071e+00
      vertex   6.096658e+01 -2.990925e+01  1.861799e+01
    endloop
  endfacet
  facet normal  2.707812e-01 -8.810257e-01  3.879062e-01
    outer loop
      vertex   7.866093e+01 -1.733266e+01  3.483067e+01
      vertex   6.096658e+01 -2.990925e+01  1.861799e+01
      vertex   8.383894e+01 -1.979173e+01  2.563101e+01
    endloop
  endfacet
  facet normal -5.507544e-02 -7.562412e-01  6.519709e-01
    outer loop
      vertex  -3.598936e+00 -2.877566e+01  5.101731e+01
      vertex   2.524690e+01 -3.630194e+01  4.472411e+01
      vertex   2.900086e+01 -1.738484e+01  6.698376e+01
    endloop
  endfacet
  facet normal  7.424079e-01 -1.607863e-01 -6.503679e-01
    outer loop
      vertex   2.191557e+01  3.837051e+01  1.002602e+02
      vertex   7.566582e+00  2.151571e+01  8.804742e+01
      vertex   1.341805e+01  4.453551e+01  8.903595e+01
    endloop
  endfacet
  facet normal -4.845987e-01 -6.245308e-01  6.124748e-01
    outer loop
      vertex   2.524690e+01 -3.630194e+01  4.472411e+01
      vertex   4.473634e+01 -2.836395e+01  6.823866e+01
      vertex   2.900086e+01 -1.738484e+01  6.698376e+01
    endloop
  endfacet
  facet normal  4.775582e-01 -7.445495e-01  4.664593e-01
    outer loop
      vertex   8.118777e+00  3.537098e+01  1.095975e+02
      vertex   7.566582e+00  2.151571e+01  8.804742e+01
      vertex   2.191557e+01  3.837051e+01  1.002602e+02
    endloop
  endfacet
  facet normal  2.329660e-01 -9.719583e-01  3.199724e-02
    outer loop
      vertex   2.191557e+01  3.837051e+01  1.002602e+02
      vertex   1.862602e+01  3.799924e+01  1.129331e+02
      vertex   8.118777e+00  3.537098e+01  1.095975e+02
    endloop
  endfacet
  facet normal -5.308311e-01 -8.430034e-01 -8.696894e-02
    outer loop
      vertex   1.073898e+01 -2.460578e+01  1.990325e+01
      vertex   3.896453e+01 -4.287867e+01  2.474526e+01
      vertex   2.524690e+01 -3.630194e+01  4.472411e+01
    endloop
  endfacet
  facet normal -2.065340e-01 -1.862178e-01  9.605554e-01
    outer loop
      vertex   2.900086e+01 -1.738484e+01  6.698376e+01
      vertex   4.473634e+01 -2.836395e+01  6.823866e+01
      vertex   4.290097e+01 -3.327145e+00  7.269778e+01
    endloop
  endfacet
  facet normal  8.504626e-01 -7.832191e-03 -5.259773e-01
    outer loop
      vertex   7.501638e+01 -4.915376e+00  1.114411e+01
      vertex   8.383894e+01 -1.979173e+01  2.563101e+01
      vertex   7.121515e+01 -2.353356e+01  5.275071e+00
    endloop
  endfacet
  facet normal  4.280712e-01 -8.981540e-01 -1.003710e-01
    outer loop
      vertex   7.121515e+01 -2.353356e+01  5.275071e+00
      vertex   8.383894e+01 -1.979173e+01  2.563101e+01
      vertex   6.096658e+01 -2.990925e+01  1.861799e+01
    endloop
  endfacet
  facet normal -6.113301e-02  4.767126e-01  8.769310e-01
    outer loop
      vertex   4.290097e+01 -3.327145e+00  7.269778e+01
      vertex   6.377105e+01  7.299617e+00  6.837582e+01
      vertex   2.233416e+01  1.513077e+01  6.123003e+01
    endloop
  endfacet
endsolid vcg
